<?xml version="1.0" encoding="utf-8" standalone="no"?>
<!DOCTYPE svg PUBLIC "-//W3C//DTD SVG 1.1//EN"
  "http://www.w3.org/Graphics/SVG/1.1/DTD/svg11.dtd">
<svg xmlns:xlink="http://www.w3.org/1999/xlink" width="460.8pt" height="345.6pt" viewBox="0 0 460.8 345.6" xmlns="http://www.w3.org/2000/svg" version="1.1">
 <metadata>
  <rdf:RDF xmlns:dc="http://purl.org/dc/elements/1.1/" xmlns:cc="http://creativecommons.org/ns#" xmlns:rdf="http://www.w3.org/1999/02/22-rdf-syntax-ns#">
   <cc:Work>
    <dc:type rdf:resource="http://purl.org/dc/dcmitype/StillImage"/>
    <dc:date>2023-12-02T23:09:08.560059</dc:date>
    <dc:format>image/svg+xml</dc:format>
    <dc:creator>
     <cc:Agent>
      <dc:title>Matplotlib v3.8.2, https://matplotlib.org/</dc:title>
     </cc:Agent>
    </dc:creator>
   </cc:Work>
  </rdf:RDF>
 </metadata>
 <defs>
  <style type="text/css">*{stroke-linejoin: round; stroke-linecap: butt}</style>
 </defs>
 <g id="figure_1">
  <g id="patch_1">
   <path d="M 0 345.6 
L 460.8 345.6 
L 460.8 0 
L 0 0 
L 0 345.6 
z
" style="fill: none"/>
  </g>
  <g id="axes_1">
   <g id="patch_2">
    <path d="M 57.6 307.584 
L 414.72 307.584 
L 414.72 41.472 
L 57.6 41.472 
L 57.6 307.584 
z
" style="fill: none"/>
   </g>
   <g id="patch_3">
    <path d="M 61.481739 307.584 
L 69.245217 307.584 
L 69.245217 307.584 
L 61.481739 307.584 
z
" clip-path="url(#p766132f26c)" style="fill: #1f77b4"/>
   </g>
   <g id="patch_4">
    <path d="M 77.008696 307.584 
L 84.772174 307.584 
L 84.772174 307.584 
L 77.008696 307.584 
z
" clip-path="url(#p766132f26c)" style="fill: #1f77b4"/>
   </g>
   <g id="patch_5">
    <path d="M 92.535652 307.584 
L 100.29913 307.584 
L 100.29913 305.626934 
L 92.535652 305.626934 
z
" clip-path="url(#p766132f26c)" style="fill: #1f77b4"/>
   </g>
   <g id="patch_6">
    <path d="M 108.062609 307.584 
L 115.826087 307.584 
L 115.826087 307.584 
L 108.062609 307.584 
z
" clip-path="url(#p766132f26c)" style="fill: #1f77b4"/>
   </g>
   <g id="patch_7">
    <path d="M 123.589565 307.584 
L 131.353043 307.584 
L 131.353043 306.605467 
L 123.589565 306.605467 
z
" clip-path="url(#p766132f26c)" style="fill: #1f77b4"/>
   </g>
   <g id="patch_8">
    <path d="M 139.116522 307.584 
L 146.88 307.584 
L 146.88 307.584 
L 139.116522 307.584 
z
" clip-path="url(#p766132f26c)" style="fill: #1f77b4"/>
   </g>
   <g id="patch_9">
    <path d="M 154.643478 307.584 
L 162.406957 307.584 
L 162.406957 307.584 
L 154.643478 307.584 
z
" clip-path="url(#p766132f26c)" style="fill: #1f77b4"/>
   </g>
   <g id="patch_10">
    <path d="M 170.170435 307.584 
L 177.933913 307.584 
L 177.933913 307.584 
L 170.170435 307.584 
z
" clip-path="url(#p766132f26c)" style="fill: #1f77b4"/>
   </g>
   <g id="patch_11">
    <path d="M 185.697391 307.584 
L 193.46087 307.584 
L 193.46087 307.584 
L 185.697391 307.584 
z
" clip-path="url(#p766132f26c)" style="fill: #1f77b4"/>
   </g>
   <g id="patch_12">
    <path d="M 201.224348 307.584 
L 208.987826 307.584 
L 208.987826 307.584 
L 201.224348 307.584 
z
" clip-path="url(#p766132f26c)" style="fill: #1f77b4"/>
   </g>
   <g id="patch_13">
    <path d="M 216.751304 307.584 
L 224.514783 307.584 
L 224.514783 307.584 
L 216.751304 307.584 
z
" clip-path="url(#p766132f26c)" style="fill: #1f77b4"/>
   </g>
   <g id="patch_14">
    <path d="M 232.278261 307.584 
L 240.041739 307.584 
L 240.041739 307.584 
L 232.278261 307.584 
z
" clip-path="url(#p766132f26c)" style="fill: #1f77b4"/>
   </g>
   <g id="patch_15">
    <path d="M 247.805217 307.584 
L 255.568696 307.584 
L 255.568696 307.584 
L 247.805217 307.584 
z
" clip-path="url(#p766132f26c)" style="fill: #1f77b4"/>
   </g>
   <g id="patch_16">
    <path d="M 263.332174 307.584 
L 271.095652 307.584 
L 271.095652 307.584 
L 263.332174 307.584 
z
" clip-path="url(#p766132f26c)" style="fill: #1f77b4"/>
   </g>
   <g id="patch_17">
    <path d="M 278.85913 307.584 
L 286.622609 307.584 
L 286.622609 307.584 
L 278.85913 307.584 
z
" clip-path="url(#p766132f26c)" style="fill: #1f77b4"/>
   </g>
   <g id="patch_18">
    <path d="M 294.386087 307.584 
L 302.149565 307.584 
L 302.149565 307.584 
L 294.386087 307.584 
z
" clip-path="url(#p766132f26c)" style="fill: #1f77b4"/>
   </g>
   <g id="patch_19">
    <path d="M 309.913043 307.584 
L 317.676522 307.584 
L 317.676522 307.584 
L 309.913043 307.584 
z
" clip-path="url(#p766132f26c)" style="fill: #1f77b4"/>
   </g>
   <g id="patch_20">
    <path d="M 325.44 307.584 
L 333.203478 307.584 
L 333.203478 307.584 
L 325.44 307.584 
z
" clip-path="url(#p766132f26c)" style="fill: #1f77b4"/>
   </g>
   <g id="patch_21">
    <path d="M 340.966957 307.584 
L 348.730435 307.584 
L 348.730435 307.584 
L 340.966957 307.584 
z
" clip-path="url(#p766132f26c)" style="fill: #1f77b4"/>
   </g>
   <g id="patch_22">
    <path d="M 356.493913 307.584 
L 364.257391 307.584 
L 364.257391 307.584 
L 356.493913 307.584 
z
" clip-path="url(#p766132f26c)" style="fill: #1f77b4"/>
   </g>
   <g id="patch_23">
    <path d="M 372.02087 307.584 
L 379.784348 307.584 
L 379.784348 307.584 
L 372.02087 307.584 
z
" clip-path="url(#p766132f26c)" style="fill: #1f77b4"/>
   </g>
   <g id="patch_24">
    <path d="M 387.547826 307.584 
L 395.311304 307.584 
L 395.311304 307.584 
L 387.547826 307.584 
z
" clip-path="url(#p766132f26c)" style="fill: #1f77b4"/>
   </g>
   <g id="patch_25">
    <path d="M 403.074783 307.584 
L 410.838261 307.584 
L 410.838261 307.584 
L 403.074783 307.584 
z
" clip-path="url(#p766132f26c)" style="fill: #1f77b4"/>
   </g>
   <g id="patch_26">
    <path d="M 61.481739 307.584 
L 69.245217 307.584 
L 69.245217 307.584 
L 61.481739 307.584 
z
" clip-path="url(#p766132f26c)" style="fill: #ff7f0e"/>
   </g>
   <g id="patch_27">
    <path d="M 77.008696 307.584 
L 84.772174 307.584 
L 84.772174 305.626934 
L 77.008696 305.626934 
z
" clip-path="url(#p766132f26c)" style="fill: #ff7f0e"/>
   </g>
   <g id="patch_28">
    <path d="M 92.535652 305.626934 
L 100.29913 305.626934 
L 100.29913 295.841606 
L 92.535652 295.841606 
z
" clip-path="url(#p766132f26c)" style="fill: #ff7f0e"/>
   </g>
   <g id="patch_29">
    <path d="M 108.062609 307.584 
L 115.826087 307.584 
L 115.826087 303.669869 
L 108.062609 303.669869 
z
" clip-path="url(#p766132f26c)" style="fill: #ff7f0e"/>
   </g>
   <g id="patch_30">
    <path d="M 123.589565 306.605467 
L 131.353043 306.605467 
L 131.353043 298.777205 
L 123.589565 298.777205 
z
" clip-path="url(#p766132f26c)" style="fill: #ff7f0e"/>
   </g>
   <g id="patch_31">
    <path d="M 139.116522 307.584 
L 146.88 307.584 
L 146.88 306.605467 
L 139.116522 306.605467 
z
" clip-path="url(#p766132f26c)" style="fill: #ff7f0e"/>
   </g>
   <g id="patch_32">
    <path d="M 154.643478 307.584 
L 162.406957 307.584 
L 162.406957 301.712803 
L 154.643478 301.712803 
z
" clip-path="url(#p766132f26c)" style="fill: #ff7f0e"/>
   </g>
   <g id="patch_33">
    <path d="M 170.170435 307.584 
L 177.933913 307.584 
L 177.933913 305.626934 
L 170.170435 305.626934 
z
" clip-path="url(#p766132f26c)" style="fill: #ff7f0e"/>
   </g>
   <g id="patch_34">
    <path d="M 185.697391 307.584 
L 193.46087 307.584 
L 193.46087 306.605467 
L 185.697391 306.605467 
z
" clip-path="url(#p766132f26c)" style="fill: #ff7f0e"/>
   </g>
   <g id="patch_35">
    <path d="M 201.224348 307.584 
L 208.987826 307.584 
L 208.987826 305.626934 
L 201.224348 305.626934 
z
" clip-path="url(#p766132f26c)" style="fill: #ff7f0e"/>
   </g>
   <g id="patch_36">
    <path d="M 216.751304 307.584 
L 224.514783 307.584 
L 224.514783 307.584 
L 216.751304 307.584 
z
" clip-path="url(#p766132f26c)" style="fill: #ff7f0e"/>
   </g>
   <g id="patch_37">
    <path d="M 232.278261 307.584 
L 240.041739 307.584 
L 240.041739 306.605467 
L 232.278261 306.605467 
z
" clip-path="url(#p766132f26c)" style="fill: #ff7f0e"/>
   </g>
   <g id="patch_38">
    <path d="M 247.805217 307.584 
L 255.568696 307.584 
L 255.568696 306.605467 
L 247.805217 306.605467 
z
" clip-path="url(#p766132f26c)" style="fill: #ff7f0e"/>
   </g>
   <g id="patch_39">
    <path d="M 263.332174 307.584 
L 271.095652 307.584 
L 271.095652 304.648402 
L 263.332174 304.648402 
z
" clip-path="url(#p766132f26c)" style="fill: #ff7f0e"/>
   </g>
   <g id="patch_40">
    <path d="M 278.85913 307.584 
L 286.622609 307.584 
L 286.622609 305.626934 
L 278.85913 305.626934 
z
" clip-path="url(#p766132f26c)" style="fill: #ff7f0e"/>
   </g>
   <g id="patch_41">
    <path d="M 294.386087 307.584 
L 302.149565 307.584 
L 302.149565 307.584 
L 294.386087 307.584 
z
" clip-path="url(#p766132f26c)" style="fill: #ff7f0e"/>
   </g>
   <g id="patch_42">
    <path d="M 309.913043 307.584 
L 317.676522 307.584 
L 317.676522 303.669869 
L 309.913043 303.669869 
z
" clip-path="url(#p766132f26c)" style="fill: #ff7f0e"/>
   </g>
   <g id="patch_43">
    <path d="M 325.44 307.584 
L 333.203478 307.584 
L 333.203478 304.648402 
L 325.44 304.648402 
z
" clip-path="url(#p766132f26c)" style="fill: #ff7f0e"/>
   </g>
   <g id="patch_44">
    <path d="M 340.966957 307.584 
L 348.730435 307.584 
L 348.730435 305.626934 
L 340.966957 305.626934 
z
" clip-path="url(#p766132f26c)" style="fill: #ff7f0e"/>
   </g>
   <g id="patch_45">
    <path d="M 356.493913 307.584 
L 364.257391 307.584 
L 364.257391 305.626934 
L 356.493913 305.626934 
z
" clip-path="url(#p766132f26c)" style="fill: #ff7f0e"/>
   </g>
   <g id="patch_46">
    <path d="M 372.02087 307.584 
L 379.784348 307.584 
L 379.784348 305.626934 
L 372.02087 305.626934 
z
" clip-path="url(#p766132f26c)" style="fill: #ff7f0e"/>
   </g>
   <g id="patch_47">
    <path d="M 387.547826 307.584 
L 395.311304 307.584 
L 395.311304 304.648402 
L 387.547826 304.648402 
z
" clip-path="url(#p766132f26c)" style="fill: #ff7f0e"/>
   </g>
   <g id="patch_48">
    <path d="M 403.074783 307.584 
L 410.838261 307.584 
L 410.838261 305.626934 
L 403.074783 305.626934 
z
" clip-path="url(#p766132f26c)" style="fill: #ff7f0e"/>
   </g>
   <g id="patch_49">
    <path d="M 61.481739 307.584 
L 69.245217 307.584 
L 69.245217 299.755737 
L 61.481739 299.755737 
z
" clip-path="url(#p766132f26c)" style="fill: #2ca02c"/>
   </g>
   <g id="patch_50">
    <path d="M 77.008696 305.626934 
L 84.772174 305.626934 
L 84.772174 293.884541 
L 77.008696 293.884541 
z
" clip-path="url(#p766132f26c)" style="fill: #2ca02c"/>
   </g>
   <g id="patch_51">
    <path d="M 92.535652 295.841606 
L 100.29913 295.841606 
L 100.29913 265.507089 
L 92.535652 265.507089 
z
" clip-path="url(#p766132f26c)" style="fill: #2ca02c"/>
   </g>
   <g id="patch_52">
    <path d="M 108.062609 303.669869 
L 115.826087 303.669869 
L 115.826087 289.970409 
L 108.062609 289.970409 
z
" clip-path="url(#p766132f26c)" style="fill: #2ca02c"/>
   </g>
   <g id="patch_53">
    <path d="M 123.589565 298.777205 
L 131.353043 298.777205 
L 131.353043 274.313884 
L 123.589565 274.313884 
z
" clip-path="url(#p766132f26c)" style="fill: #2ca02c"/>
   </g>
   <g id="patch_54">
    <path d="M 139.116522 306.605467 
L 146.88 306.605467 
L 146.88 295.841606 
L 139.116522 295.841606 
z
" clip-path="url(#p766132f26c)" style="fill: #2ca02c"/>
   </g>
   <g id="patch_55">
    <path d="M 154.643478 301.712803 
L 162.406957 301.712803 
L 162.406957 290.948942 
L 154.643478 290.948942 
z
" clip-path="url(#p766132f26c)" style="fill: #2ca02c"/>
   </g>
   <g id="patch_56">
    <path d="M 170.170435 305.626934 
L 177.933913 305.626934 
L 177.933913 292.906008 
L 170.170435 292.906008 
z
" clip-path="url(#p766132f26c)" style="fill: #2ca02c"/>
   </g>
   <g id="patch_57">
    <path d="M 185.697391 306.605467 
L 193.46087 306.605467 
L 193.46087 300.73427 
L 185.697391 300.73427 
z
" clip-path="url(#p766132f26c)" style="fill: #2ca02c"/>
   </g>
   <g id="patch_58">
    <path d="M 201.224348 305.626934 
L 208.987826 305.626934 
L 208.987826 297.798672 
L 201.224348 297.798672 
z
" clip-path="url(#p766132f26c)" style="fill: #2ca02c"/>
   </g>
   <g id="patch_59">
    <path d="M 216.751304 307.584 
L 224.514783 307.584 
L 224.514783 299.755737 
L 216.751304 299.755737 
z
" clip-path="url(#p766132f26c)" style="fill: #2ca02c"/>
   </g>
   <g id="patch_60">
    <path d="M 232.278261 306.605467 
L 240.041739 306.605467 
L 240.041739 302.691336 
L 232.278261 302.691336 
z
" clip-path="url(#p766132f26c)" style="fill: #2ca02c"/>
   </g>
   <g id="patch_61">
    <path d="M 247.805217 306.605467 
L 255.568696 306.605467 
L 255.568696 299.755737 
L 247.805217 299.755737 
z
" clip-path="url(#p766132f26c)" style="fill: #2ca02c"/>
   </g>
   <g id="patch_62">
    <path d="M 263.332174 304.648402 
L 271.095652 304.648402 
L 271.095652 297.798672 
L 263.332174 297.798672 
z
" clip-path="url(#p766132f26c)" style="fill: #2ca02c"/>
   </g>
   <g id="patch_63">
    <path d="M 278.85913 305.626934 
L 286.622609 305.626934 
L 286.622609 299.755737 
L 278.85913 299.755737 
z
" clip-path="url(#p766132f26c)" style="fill: #2ca02c"/>
   </g>
   <g id="patch_64">
    <path d="M 294.386087 307.584 
L 302.149565 307.584 
L 302.149565 297.798672 
L 294.386087 297.798672 
z
" clip-path="url(#p766132f26c)" style="fill: #2ca02c"/>
   </g>
   <g id="patch_65">
    <path d="M 309.913043 303.669869 
L 317.676522 303.669869 
L 317.676522 296.820139 
L 309.913043 296.820139 
z
" clip-path="url(#p766132f26c)" style="fill: #2ca02c"/>
   </g>
   <g id="patch_66">
    <path d="M 325.44 304.648402 
L 333.203478 304.648402 
L 333.203478 295.841606 
L 325.44 295.841606 
z
" clip-path="url(#p766132f26c)" style="fill: #2ca02c"/>
   </g>
   <g id="patch_67">
    <path d="M 340.966957 305.626934 
L 348.730435 305.626934 
L 348.730435 291.927475 
L 340.966957 291.927475 
z
" clip-path="url(#p766132f26c)" style="fill: #2ca02c"/>
   </g>
   <g id="patch_68">
    <path d="M 356.493913 305.626934 
L 364.257391 305.626934 
L 364.257391 289.970409 
L 356.493913 289.970409 
z
" clip-path="url(#p766132f26c)" style="fill: #2ca02c"/>
   </g>
   <g id="patch_69">
    <path d="M 372.02087 305.626934 
L 379.784348 305.626934 
L 379.784348 295.841606 
L 372.02087 295.841606 
z
" clip-path="url(#p766132f26c)" style="fill: #2ca02c"/>
   </g>
   <g id="patch_70">
    <path d="M 387.547826 304.648402 
L 395.311304 304.648402 
L 395.311304 296.820139 
L 387.547826 296.820139 
z
" clip-path="url(#p766132f26c)" style="fill: #2ca02c"/>
   </g>
   <g id="patch_71">
    <path d="M 403.074783 305.626934 
L 410.838261 305.626934 
L 410.838261 298.777205 
L 403.074783 298.777205 
z
" clip-path="url(#p766132f26c)" style="fill: #2ca02c"/>
   </g>
   <g id="patch_72">
    <path d="M 61.481739 299.755737 
L 69.245217 299.755737 
L 69.245217 292.906008 
L 61.481739 292.906008 
z
" clip-path="url(#p766132f26c)" style="fill: #d62728"/>
   </g>
   <g id="patch_73">
    <path d="M 77.008696 293.884541 
L 84.772174 293.884541 
L 84.772174 283.12068 
L 77.008696 283.12068 
z
" clip-path="url(#p766132f26c)" style="fill: #d62728"/>
   </g>
   <g id="patch_74">
    <path d="M 92.535652 265.507089 
L 100.29913 265.507089 
L 100.29913 233.215506 
L 92.535652 233.215506 
z
" clip-path="url(#p766132f26c)" style="fill: #d62728"/>
   </g>
   <g id="patch_75">
    <path d="M 108.062609 289.970409 
L 115.826087 289.970409 
L 115.826087 275.292417 
L 108.062609 275.292417 
z
" clip-path="url(#p766132f26c)" style="fill: #d62728"/>
   </g>
   <g id="patch_76">
    <path d="M 123.589565 274.313884 
L 131.353043 274.313884 
L 131.353043 254.743228 
L 123.589565 254.743228 
z
" clip-path="url(#p766132f26c)" style="fill: #d62728"/>
   </g>
   <g id="patch_77">
    <path d="M 139.116522 295.841606 
L 146.88 295.841606 
L 146.88 287.034811 
L 139.116522 287.034811 
z
" clip-path="url(#p766132f26c)" style="fill: #d62728"/>
   </g>
   <g id="patch_78">
    <path d="M 154.643478 290.948942 
L 162.406957 290.948942 
L 162.406957 286.056278 
L 154.643478 286.056278 
z
" clip-path="url(#p766132f26c)" style="fill: #d62728"/>
   </g>
   <g id="patch_79">
    <path d="M 170.170435 292.906008 
L 177.933913 292.906008 
L 177.933913 285.077745 
L 170.170435 285.077745 
z
" clip-path="url(#p766132f26c)" style="fill: #d62728"/>
   </g>
   <g id="patch_80">
    <path d="M 185.697391 300.73427 
L 193.46087 300.73427 
L 193.46087 291.927475 
L 185.697391 291.927475 
z
" clip-path="url(#p766132f26c)" style="fill: #d62728"/>
   </g>
   <g id="patch_81">
    <path d="M 201.224348 297.798672 
L 208.987826 297.798672 
L 208.987826 289.970409 
L 201.224348 289.970409 
z
" clip-path="url(#p766132f26c)" style="fill: #d62728"/>
   </g>
   <g id="patch_82">
    <path d="M 216.751304 299.755737 
L 224.514783 299.755737 
L 224.514783 293.884541 
L 216.751304 293.884541 
z
" clip-path="url(#p766132f26c)" style="fill: #d62728"/>
   </g>
   <g id="patch_83">
    <path d="M 232.278261 302.691336 
L 240.041739 302.691336 
L 240.041739 294.863073 
L 232.278261 294.863073 
z
" clip-path="url(#p766132f26c)" style="fill: #d62728"/>
   </g>
   <g id="patch_84">
    <path d="M 247.805217 299.755737 
L 255.568696 299.755737 
L 255.568696 289.970409 
L 247.805217 289.970409 
z
" clip-path="url(#p766132f26c)" style="fill: #d62728"/>
   </g>
   <g id="patch_85">
    <path d="M 263.332174 297.798672 
L 271.095652 297.798672 
L 271.095652 288.013344 
L 263.332174 288.013344 
z
" clip-path="url(#p766132f26c)" style="fill: #d62728"/>
   </g>
   <g id="patch_86">
    <path d="M 278.85913 299.755737 
L 286.622609 299.755737 
L 286.622609 294.863073 
L 278.85913 294.863073 
z
" clip-path="url(#p766132f26c)" style="fill: #d62728"/>
   </g>
   <g id="patch_87">
    <path d="M 294.386087 297.798672 
L 302.149565 297.798672 
L 302.149565 280.185081 
L 294.386087 280.185081 
z
" clip-path="url(#p766132f26c)" style="fill: #d62728"/>
   </g>
   <g id="patch_88">
    <path d="M 309.913043 296.820139 
L 317.676522 296.820139 
L 317.676522 287.034811 
L 309.913043 287.034811 
z
" clip-path="url(#p766132f26c)" style="fill: #d62728"/>
   </g>
   <g id="patch_89">
    <path d="M 325.44 295.841606 
L 333.203478 295.841606 
L 333.203478 285.077745 
L 325.44 285.077745 
z
" clip-path="url(#p766132f26c)" style="fill: #d62728"/>
   </g>
   <g id="patch_90">
    <path d="M 340.966957 291.927475 
L 348.730435 291.927475 
L 348.730435 282.142147 
L 340.966957 282.142147 
z
" clip-path="url(#p766132f26c)" style="fill: #d62728"/>
   </g>
   <g id="patch_91">
    <path d="M 356.493913 289.970409 
L 364.257391 289.970409 
L 364.257391 282.142147 
L 356.493913 282.142147 
z
" clip-path="url(#p766132f26c)" style="fill: #d62728"/>
   </g>
   <g id="patch_92">
    <path d="M 372.02087 295.841606 
L 379.784348 295.841606 
L 379.784348 290.948942 
L 372.02087 290.948942 
z
" clip-path="url(#p766132f26c)" style="fill: #d62728"/>
   </g>
   <g id="patch_93">
    <path d="M 387.547826 296.820139 
L 395.311304 296.820139 
L 395.311304 288.991876 
L 387.547826 288.991876 
z
" clip-path="url(#p766132f26c)" style="fill: #d62728"/>
   </g>
   <g id="patch_94">
    <path d="M 403.074783 298.777205 
L 410.838261 298.777205 
L 410.838261 289.970409 
L 403.074783 289.970409 
z
" clip-path="url(#p766132f26c)" style="fill: #d62728"/>
   </g>
   <g id="patch_95">
    <path d="M 61.481739 307.584 
L 69.245217 307.584 
L 69.245217 307.584 
L 61.481739 307.584 
z
" clip-path="url(#p766132f26c)" style="fill: #9467bd"/>
   </g>
   <g id="patch_96">
    <path d="M 77.008696 283.12068 
L 84.772174 283.12068 
L 84.772174 280.185081 
L 77.008696 280.185081 
z
" clip-path="url(#p766132f26c)" style="fill: #9467bd"/>
   </g>
   <g id="patch_97">
    <path d="M 92.535652 233.215506 
L 100.29913 233.215506 
L 100.29913 230.279907 
L 92.535652 230.279907 
z
" clip-path="url(#p766132f26c)" style="fill: #9467bd"/>
   </g>
   <g id="patch_98">
    <path d="M 108.062609 275.292417 
L 115.826087 275.292417 
L 115.826087 273.335351 
L 108.062609 273.335351 
z
" clip-path="url(#p766132f26c)" style="fill: #9467bd"/>
   </g>
   <g id="patch_99">
    <path d="M 123.589565 307.584 
L 131.353043 307.584 
L 131.353043 307.584 
L 123.589565 307.584 
z
" clip-path="url(#p766132f26c)" style="fill: #9467bd"/>
   </g>
   <g id="patch_100">
    <path d="M 139.116522 287.034811 
L 146.88 287.034811 
L 146.88 286.056278 
L 139.116522 286.056278 
z
" clip-path="url(#p766132f26c)" style="fill: #9467bd"/>
   </g>
   <g id="patch_101">
    <path d="M 154.643478 286.056278 
L 162.406957 286.056278 
L 162.406957 285.077745 
L 154.643478 285.077745 
z
" clip-path="url(#p766132f26c)" style="fill: #9467bd"/>
   </g>
   <g id="patch_102">
    <path d="M 170.170435 285.077745 
L 177.933913 285.077745 
L 177.933913 284.099212 
L 170.170435 284.099212 
z
" clip-path="url(#p766132f26c)" style="fill: #9467bd"/>
   </g>
   <g id="patch_103">
    <path d="M 185.697391 307.584 
L 193.46087 307.584 
L 193.46087 307.584 
L 185.697391 307.584 
z
" clip-path="url(#p766132f26c)" style="fill: #9467bd"/>
   </g>
   <g id="patch_104">
    <path d="M 201.224348 307.584 
L 208.987826 307.584 
L 208.987826 307.584 
L 201.224348 307.584 
z
" clip-path="url(#p766132f26c)" style="fill: #9467bd"/>
   </g>
   <g id="patch_105">
    <path d="M 216.751304 307.584 
L 224.514783 307.584 
L 224.514783 307.584 
L 216.751304 307.584 
z
" clip-path="url(#p766132f26c)" style="fill: #9467bd"/>
   </g>
   <g id="patch_106">
    <path d="M 232.278261 294.863073 
L 240.041739 294.863073 
L 240.041739 293.884541 
L 232.278261 293.884541 
z
" clip-path="url(#p766132f26c)" style="fill: #9467bd"/>
   </g>
   <g id="patch_107">
    <path d="M 247.805217 307.584 
L 255.568696 307.584 
L 255.568696 307.584 
L 247.805217 307.584 
z
" clip-path="url(#p766132f26c)" style="fill: #9467bd"/>
   </g>
   <g id="patch_108">
    <path d="M 263.332174 288.013344 
L 271.095652 288.013344 
L 271.095652 287.034811 
L 263.332174 287.034811 
z
" clip-path="url(#p766132f26c)" style="fill: #9467bd"/>
   </g>
   <g id="patch_109">
    <path d="M 278.85913 294.863073 
L 286.622609 294.863073 
L 286.622609 293.884541 
L 278.85913 293.884541 
z
" clip-path="url(#p766132f26c)" style="fill: #9467bd"/>
   </g>
   <g id="patch_110">
    <path d="M 294.386087 307.584 
L 302.149565 307.584 
L 302.149565 307.584 
L 294.386087 307.584 
z
" clip-path="url(#p766132f26c)" style="fill: #9467bd"/>
   </g>
   <g id="patch_111">
    <path d="M 309.913043 307.584 
L 317.676522 307.584 
L 317.676522 307.584 
L 309.913043 307.584 
z
" clip-path="url(#p766132f26c)" style="fill: #9467bd"/>
   </g>
   <g id="patch_112">
    <path d="M 325.44 285.077745 
L 333.203478 285.077745 
L 333.203478 284.099212 
L 325.44 284.099212 
z
" clip-path="url(#p766132f26c)" style="fill: #9467bd"/>
   </g>
   <g id="patch_113">
    <path d="M 340.966957 282.142147 
L 348.730435 282.142147 
L 348.730435 278.228015 
L 340.966957 278.228015 
z
" clip-path="url(#p766132f26c)" style="fill: #9467bd"/>
   </g>
   <g id="patch_114">
    <path d="M 356.493913 282.142147 
L 364.257391 282.142147 
L 364.257391 281.163614 
L 356.493913 281.163614 
z
" clip-path="url(#p766132f26c)" style="fill: #9467bd"/>
   </g>
   <g id="patch_115">
    <path d="M 372.02087 307.584 
L 379.784348 307.584 
L 379.784348 307.584 
L 372.02087 307.584 
z
" clip-path="url(#p766132f26c)" style="fill: #9467bd"/>
   </g>
   <g id="patch_116">
    <path d="M 387.547826 288.991876 
L 395.311304 288.991876 
L 395.311304 288.013344 
L 387.547826 288.013344 
z
" clip-path="url(#p766132f26c)" style="fill: #9467bd"/>
   </g>
   <g id="patch_117">
    <path d="M 403.074783 307.584 
L 410.838261 307.584 
L 410.838261 307.584 
L 403.074783 307.584 
z
" clip-path="url(#p766132f26c)" style="fill: #9467bd"/>
   </g>
   <g id="patch_118">
    <path d="M 61.481739 292.906008 
L 69.245217 292.906008 
L 69.245217 269.42122 
L 61.481739 269.42122 
z
" clip-path="url(#p766132f26c)" style="fill: #8c564b"/>
   </g>
   <g id="patch_119">
    <path d="M 77.008696 280.185081 
L 84.772174 280.185081 
L 84.772174 255.721761 
L 77.008696 255.721761 
z
" clip-path="url(#p766132f26c)" style="fill: #8c564b"/>
   </g>
   <g id="patch_120">
    <path d="M 92.535652 230.279907 
L 100.29913 230.279907 
L 100.29913 141.233421 
L 92.535652 141.233421 
z
" clip-path="url(#p766132f26c)" style="fill: #8c564b"/>
   </g>
   <g id="patch_121">
    <path d="M 108.062609 273.335351 
L 115.826087 273.335351 
L 115.826087 224.40871 
L 108.062609 224.40871 
z
" clip-path="url(#p766132f26c)" style="fill: #8c564b"/>
   </g>
   <g id="patch_122">
    <path d="M 123.589565 254.743228 
L 131.353043 254.743228 
L 131.353043 205.816587 
L 123.589565 205.816587 
z
" clip-path="url(#p766132f26c)" style="fill: #8c564b"/>
   </g>
   <g id="patch_123">
    <path d="M 139.116522 286.056278 
L 146.88 286.056278 
L 146.88 251.807629 
L 139.116522 251.807629 
z
" clip-path="url(#p766132f26c)" style="fill: #8c564b"/>
   </g>
   <g id="patch_124">
    <path d="M 154.643478 285.077745 
L 162.406957 285.077745 
L 162.406957 251.807629 
L 154.643478 251.807629 
z
" clip-path="url(#p766132f26c)" style="fill: #8c564b"/>
   </g>
   <g id="patch_125">
    <path d="M 170.170435 284.099212 
L 177.933913 284.099212 
L 177.933913 262.57149 
L 170.170435 262.57149 
z
" clip-path="url(#p766132f26c)" style="fill: #8c564b"/>
   </g>
   <g id="patch_126">
    <path d="M 185.697391 291.927475 
L 193.46087 291.927475 
L 193.46087 280.185081 
L 185.697391 280.185081 
z
" clip-path="url(#p766132f26c)" style="fill: #8c564b"/>
   </g>
   <g id="patch_127">
    <path d="M 201.224348 289.970409 
L 208.987826 289.970409 
L 208.987826 258.657359 
L 201.224348 258.657359 
z
" clip-path="url(#p766132f26c)" style="fill: #8c564b"/>
   </g>
   <g id="patch_128">
    <path d="M 216.751304 293.884541 
L 224.514783 293.884541 
L 224.514783 274.313884 
L 216.751304 274.313884 
z
" clip-path="url(#p766132f26c)" style="fill: #8c564b"/>
   </g>
   <g id="patch_129">
    <path d="M 232.278261 293.884541 
L 240.041739 293.884541 
L 240.041739 280.185081 
L 232.278261 280.185081 
z
" clip-path="url(#p766132f26c)" style="fill: #8c564b"/>
   </g>
   <g id="patch_130">
    <path d="M 247.805217 289.970409 
L 255.568696 289.970409 
L 255.568696 259.635892 
L 247.805217 259.635892 
z
" clip-path="url(#p766132f26c)" style="fill: #8c564b"/>
   </g>
   <g id="patch_131">
    <path d="M 263.332174 287.034811 
L 271.095652 287.034811 
L 271.095652 257.678826 
L 263.332174 257.678826 
z
" clip-path="url(#p766132f26c)" style="fill: #8c564b"/>
   </g>
   <g id="patch_132">
    <path d="M 278.85913 293.884541 
L 286.622609 293.884541 
L 286.622609 281.163614 
L 278.85913 281.163614 
z
" clip-path="url(#p766132f26c)" style="fill: #8c564b"/>
   </g>
   <g id="patch_133">
    <path d="M 294.386087 280.185081 
L 302.149565 280.185081 
L 302.149565 247.893498 
L 294.386087 247.893498 
z
" clip-path="url(#p766132f26c)" style="fill: #8c564b"/>
   </g>
   <g id="patch_134">
    <path d="M 309.913043 287.034811 
L 317.676522 287.034811 
L 317.676522 260.614425 
L 309.913043 260.614425 
z
" clip-path="url(#p766132f26c)" style="fill: #8c564b"/>
   </g>
   <g id="patch_135">
    <path d="M 325.44 284.099212 
L 333.203478 284.099212 
L 333.203478 247.893498 
L 325.44 247.893498 
z
" clip-path="url(#p766132f26c)" style="fill: #8c564b"/>
   </g>
   <g id="patch_136">
    <path d="M 340.966957 278.228015 
L 348.730435 278.228015 
L 348.730435 233.215506 
L 340.966957 233.215506 
z
" clip-path="url(#p766132f26c)" style="fill: #8c564b"/>
   </g>
   <g id="patch_137">
    <path d="M 356.493913 281.163614 
L 364.257391 281.163614 
L 364.257391 251.807629 
L 356.493913 251.807629 
z
" clip-path="url(#p766132f26c)" style="fill: #8c564b"/>
   </g>
   <g id="patch_138">
    <path d="M 372.02087 290.948942 
L 379.784348 290.948942 
L 379.784348 252.786162 
L 372.02087 252.786162 
z
" clip-path="url(#p766132f26c)" style="fill: #8c564b"/>
   </g>
   <g id="patch_139">
    <path d="M 387.547826 288.013344 
L 395.311304 288.013344 
L 395.311304 251.807629 
L 387.547826 251.807629 
z
" clip-path="url(#p766132f26c)" style="fill: #8c564b"/>
   </g>
   <g id="patch_140">
    <path d="M 403.074783 289.970409 
L 410.838261 289.970409 
L 410.838261 270.399753 
L 403.074783 270.399753 
z
" clip-path="url(#p766132f26c)" style="fill: #8c564b"/>
   </g>
   <g id="patch_141">
    <path d="M 61.481739 269.42122 
L 69.245217 269.42122 
L 69.245217 257.678826 
L 61.481739 257.678826 
z
" clip-path="url(#p766132f26c)" style="fill: #e377c2"/>
   </g>
   <g id="patch_142">
    <path d="M 77.008696 255.721761 
L 84.772174 255.721761 
L 84.772174 244.9579 
L 77.008696 244.9579 
z
" clip-path="url(#p766132f26c)" style="fill: #e377c2"/>
   </g>
   <g id="patch_143">
    <path d="M 92.535652 141.233421 
L 100.29913 141.233421 
L 100.29913 112.855969 
L 92.535652 112.855969 
z
" clip-path="url(#p766132f26c)" style="fill: #e377c2"/>
   </g>
   <g id="patch_144">
    <path d="M 108.062609 224.40871 
L 115.826087 224.40871 
L 115.826087 208.752185 
L 108.062609 208.752185 
z
" clip-path="url(#p766132f26c)" style="fill: #e377c2"/>
   </g>
   <g id="patch_145">
    <path d="M 123.589565 205.816587 
L 131.353043 205.816587 
L 131.353043 190.160062 
L 123.589565 190.160062 
z
" clip-path="url(#p766132f26c)" style="fill: #e377c2"/>
   </g>
   <g id="patch_146">
    <path d="M 139.116522 251.807629 
L 146.88 251.807629 
L 146.88 246.914965 
L 139.116522 246.914965 
z
" clip-path="url(#p766132f26c)" style="fill: #e377c2"/>
   </g>
   <g id="patch_147">
    <path d="M 154.643478 251.807629 
L 162.406957 251.807629 
L 162.406957 245.936432 
L 154.643478 245.936432 
z
" clip-path="url(#p766132f26c)" style="fill: #e377c2"/>
   </g>
   <g id="patch_148">
    <path d="M 170.170435 262.57149 
L 177.933913 262.57149 
L 177.933913 256.700293 
L 170.170435 256.700293 
z
" clip-path="url(#p766132f26c)" style="fill: #e377c2"/>
   </g>
   <g id="patch_149">
    <path d="M 185.697391 280.185081 
L 193.46087 280.185081 
L 193.46087 277.249483 
L 185.697391 277.249483 
z
" clip-path="url(#p766132f26c)" style="fill: #e377c2"/>
   </g>
   <g id="patch_150">
    <path d="M 201.224348 258.657359 
L 208.987826 258.657359 
L 208.987826 245.936432 
L 201.224348 245.936432 
z
" clip-path="url(#p766132f26c)" style="fill: #e377c2"/>
   </g>
   <g id="patch_151">
    <path d="M 216.751304 307.584 
L 224.514783 307.584 
L 224.514783 307.584 
L 216.751304 307.584 
z
" clip-path="url(#p766132f26c)" style="fill: #e377c2"/>
   </g>
   <g id="patch_152">
    <path d="M 232.278261 280.185081 
L 240.041739 280.185081 
L 240.041739 273.335351 
L 232.278261 273.335351 
z
" clip-path="url(#p766132f26c)" style="fill: #e377c2"/>
   </g>
   <g id="patch_153">
    <path d="M 247.805217 259.635892 
L 255.568696 259.635892 
L 255.568696 249.850564 
L 247.805217 249.850564 
z
" clip-path="url(#p766132f26c)" style="fill: #e377c2"/>
   </g>
   <g id="patch_154">
    <path d="M 263.332174 257.678826 
L 271.095652 257.678826 
L 271.095652 249.850564 
L 263.332174 249.850564 
z
" clip-path="url(#p766132f26c)" style="fill: #e377c2"/>
   </g>
   <g id="patch_155">
    <path d="M 278.85913 281.163614 
L 286.622609 281.163614 
L 286.622609 267.464154 
L 278.85913 267.464154 
z
" clip-path="url(#p766132f26c)" style="fill: #e377c2"/>
   </g>
   <g id="patch_156">
    <path d="M 294.386087 247.893498 
L 302.149565 247.893498 
L 302.149565 237.129637 
L 294.386087 237.129637 
z
" clip-path="url(#p766132f26c)" style="fill: #e377c2"/>
   </g>
   <g id="patch_157">
    <path d="M 309.913043 260.614425 
L 317.676522 260.614425 
L 317.676522 247.893498 
L 309.913043 247.893498 
z
" clip-path="url(#p766132f26c)" style="fill: #e377c2"/>
   </g>
   <g id="patch_158">
    <path d="M 325.44 247.893498 
L 333.203478 247.893498 
L 333.203478 239.086703 
L 325.44 239.086703 
z
" clip-path="url(#p766132f26c)" style="fill: #e377c2"/>
   </g>
   <g id="patch_159">
    <path d="M 340.966957 233.215506 
L 348.730435 233.215506 
L 348.730435 221.473112 
L 340.966957 221.473112 
z
" clip-path="url(#p766132f26c)" style="fill: #e377c2"/>
   </g>
   <g id="patch_160">
    <path d="M 356.493913 251.807629 
L 364.257391 251.807629 
L 364.257391 240.065236 
L 356.493913 240.065236 
z
" clip-path="url(#p766132f26c)" style="fill: #e377c2"/>
   </g>
   <g id="patch_161">
    <path d="M 372.02087 252.786162 
L 379.784348 252.786162 
L 379.784348 243.979367 
L 372.02087 243.979367 
z
" clip-path="url(#p766132f26c)" style="fill: #e377c2"/>
   </g>
   <g id="patch_162">
    <path d="M 387.547826 251.807629 
L 395.311304 251.807629 
L 395.311304 244.9579 
L 387.547826 244.9579 
z
" clip-path="url(#p766132f26c)" style="fill: #e377c2"/>
   </g>
   <g id="patch_163">
    <path d="M 403.074783 270.399753 
L 410.838261 270.399753 
L 410.838261 261.592958 
L 403.074783 261.592958 
z
" clip-path="url(#p766132f26c)" style="fill: #e377c2"/>
   </g>
   <g id="patch_164">
    <path d="M 61.481739 257.678826 
L 69.245217 257.678826 
L 69.245217 254.743228 
L 61.481739 254.743228 
z
" clip-path="url(#p766132f26c)" style="fill: #7f7f7f"/>
   </g>
   <g id="patch_165">
    <path d="M 77.008696 244.9579 
L 84.772174 244.9579 
L 84.772174 238.10817 
L 77.008696 238.10817 
z
" clip-path="url(#p766132f26c)" style="fill: #7f7f7f"/>
   </g>
   <g id="patch_166">
    <path d="M 92.535652 112.855969 
L 100.29913 112.855969 
L 100.29913 98.177977 
L 92.535652 98.177977 
z
" clip-path="url(#p766132f26c)" style="fill: #7f7f7f"/>
   </g>
   <g id="patch_167">
    <path d="M 108.062609 208.752185 
L 115.826087 208.752185 
L 115.826087 190.160062 
L 108.062609 190.160062 
z
" clip-path="url(#p766132f26c)" style="fill: #7f7f7f"/>
   </g>
   <g id="patch_168">
    <path d="M 123.589565 190.160062 
L 131.353043 190.160062 
L 131.353043 179.396201 
L 123.589565 179.396201 
z
" clip-path="url(#p766132f26c)" style="fill: #7f7f7f"/>
   </g>
   <g id="patch_169">
    <path d="M 139.116522 246.914965 
L 146.88 246.914965 
L 146.88 243.000834 
L 139.116522 243.000834 
z
" clip-path="url(#p766132f26c)" style="fill: #7f7f7f"/>
   </g>
   <g id="patch_170">
    <path d="M 154.643478 245.936432 
L 162.406957 245.936432 
L 162.406957 240.065236 
L 154.643478 240.065236 
z
" clip-path="url(#p766132f26c)" style="fill: #7f7f7f"/>
   </g>
   <g id="patch_171">
    <path d="M 170.170435 256.700293 
L 177.933913 256.700293 
L 177.933913 253.764695 
L 170.170435 253.764695 
z
" clip-path="url(#p766132f26c)" style="fill: #7f7f7f"/>
   </g>
   <g id="patch_172">
    <path d="M 185.697391 277.249483 
L 193.46087 277.249483 
L 193.46087 275.292417 
L 185.697391 275.292417 
z
" clip-path="url(#p766132f26c)" style="fill: #7f7f7f"/>
   </g>
   <g id="patch_173">
    <path d="M 201.224348 245.936432 
L 208.987826 245.936432 
L 208.987826 238.10817 
L 201.224348 238.10817 
z
" clip-path="url(#p766132f26c)" style="fill: #7f7f7f"/>
   </g>
   <g id="patch_174">
    <path d="M 216.751304 274.313884 
L 224.514783 274.313884 
L 224.514783 272.356819 
L 216.751304 272.356819 
z
" clip-path="url(#p766132f26c)" style="fill: #7f7f7f"/>
   </g>
   <g id="patch_175">
    <path d="M 232.278261 273.335351 
L 240.041739 273.335351 
L 240.041739 268.442687 
L 232.278261 268.442687 
z
" clip-path="url(#p766132f26c)" style="fill: #7f7f7f"/>
   </g>
   <g id="patch_176">
    <path d="M 247.805217 249.850564 
L 255.568696 249.850564 
L 255.568696 241.043768 
L 247.805217 241.043768 
z
" clip-path="url(#p766132f26c)" style="fill: #7f7f7f"/>
   </g>
   <g id="patch_177">
    <path d="M 263.332174 249.850564 
L 271.095652 249.850564 
L 271.095652 243.000834 
L 263.332174 243.000834 
z
" clip-path="url(#p766132f26c)" style="fill: #7f7f7f"/>
   </g>
   <g id="patch_178">
    <path d="M 278.85913 267.464154 
L 286.622609 267.464154 
L 286.622609 259.635892 
L 278.85913 259.635892 
z
" clip-path="url(#p766132f26c)" style="fill: #7f7f7f"/>
   </g>
   <g id="patch_179">
    <path d="M 294.386087 237.129637 
L 302.149565 237.129637 
L 302.149565 229.301375 
L 294.386087 229.301375 
z
" clip-path="url(#p766132f26c)" style="fill: #7f7f7f"/>
   </g>
   <g id="patch_180">
    <path d="M 309.913043 247.893498 
L 317.676522 247.893498 
L 317.676522 242.022301 
L 309.913043 242.022301 
z
" clip-path="url(#p766132f26c)" style="fill: #7f7f7f"/>
   </g>
   <g id="patch_181">
    <path d="M 325.44 239.086703 
L 333.203478 239.086703 
L 333.203478 234.194039 
L 325.44 234.194039 
z
" clip-path="url(#p766132f26c)" style="fill: #7f7f7f"/>
   </g>
   <g id="patch_182">
    <path d="M 340.966957 221.473112 
L 348.730435 221.473112 
L 348.730435 213.644849 
L 340.966957 213.644849 
z
" clip-path="url(#p766132f26c)" style="fill: #7f7f7f"/>
   </g>
   <g id="patch_183">
    <path d="M 356.493913 240.065236 
L 364.257391 240.065236 
L 364.257391 237.129637 
L 356.493913 237.129637 
z
" clip-path="url(#p766132f26c)" style="fill: #7f7f7f"/>
   </g>
   <g id="patch_184">
    <path d="M 372.02087 243.979367 
L 379.784348 243.979367 
L 379.784348 241.043768 
L 372.02087 241.043768 
z
" clip-path="url(#p766132f26c)" style="fill: #7f7f7f"/>
   </g>
   <g id="patch_185">
    <path d="M 387.547826 244.9579 
L 395.311304 244.9579 
L 395.311304 242.022301 
L 387.547826 242.022301 
z
" clip-path="url(#p766132f26c)" style="fill: #7f7f7f"/>
   </g>
   <g id="patch_186">
    <path d="M 403.074783 261.592958 
L 410.838261 261.592958 
L 410.838261 255.721761 
L 403.074783 255.721761 
z
" clip-path="url(#p766132f26c)" style="fill: #7f7f7f"/>
   </g>
   <g id="patch_187">
    <path d="M 61.481739 254.743228 
L 69.245217 254.743228 
L 69.245217 246.914965 
L 61.481739 246.914965 
z
" clip-path="url(#p766132f26c)" style="fill: #bcbd22"/>
   </g>
   <g id="patch_188">
    <path d="M 77.008696 238.10817 
L 84.772174 238.10817 
L 84.772174 222.451645 
L 77.008696 222.451645 
z
" clip-path="url(#p766132f26c)" style="fill: #bcbd22"/>
   </g>
   <g id="patch_189">
    <path d="M 92.535652 98.177977 
L 100.29913 98.177977 
L 100.29913 54.144 
L 92.535652 54.144 
z
" clip-path="url(#p766132f26c)" style="fill: #bcbd22"/>
   </g>
   <g id="patch_190">
    <path d="M 108.062609 190.160062 
L 115.826087 190.160062 
L 115.826087 171.567938 
L 108.062609 171.567938 
z
" clip-path="url(#p766132f26c)" style="fill: #bcbd22"/>
   </g>
   <g id="patch_191">
    <path d="M 123.589565 179.396201 
L 131.353043 179.396201 
L 131.353043 146.126085 
L 123.589565 146.126085 
z
" clip-path="url(#p766132f26c)" style="fill: #bcbd22"/>
   </g>
   <g id="patch_192">
    <path d="M 139.116522 243.000834 
L 146.88 243.000834 
L 146.88 228.322842 
L 139.116522 228.322842 
z
" clip-path="url(#p766132f26c)" style="fill: #bcbd22"/>
   </g>
   <g id="patch_193">
    <path d="M 154.643478 240.065236 
L 162.406957 240.065236 
L 162.406957 222.451645 
L 154.643478 222.451645 
z
" clip-path="url(#p766132f26c)" style="fill: #bcbd22"/>
   </g>
   <g id="patch_194">
    <path d="M 170.170435 253.764695 
L 177.933913 253.764695 
L 177.933913 242.022301 
L 170.170435 242.022301 
z
" clip-path="url(#p766132f26c)" style="fill: #bcbd22"/>
   </g>
   <g id="patch_195">
    <path d="M 185.697391 275.292417 
L 193.46087 275.292417 
L 193.46087 269.42122 
L 185.697391 269.42122 
z
" clip-path="url(#p766132f26c)" style="fill: #bcbd22"/>
   </g>
   <g id="patch_196">
    <path d="M 201.224348 238.10817 
L 208.987826 238.10817 
L 208.987826 226.365776 
L 201.224348 226.365776 
z
" clip-path="url(#p766132f26c)" style="fill: #bcbd22"/>
   </g>
   <g id="patch_197">
    <path d="M 216.751304 272.356819 
L 224.514783 272.356819 
L 224.514783 266.485622 
L 216.751304 266.485622 
z
" clip-path="url(#p766132f26c)" style="fill: #bcbd22"/>
   </g>
   <g id="patch_198">
    <path d="M 232.278261 268.442687 
L 240.041739 268.442687 
L 240.041739 260.614425 
L 232.278261 260.614425 
z
" clip-path="url(#p766132f26c)" style="fill: #bcbd22"/>
   </g>
   <g id="patch_199">
    <path d="M 247.805217 241.043768 
L 255.568696 241.043768 
L 255.568696 229.301375 
L 247.805217 229.301375 
z
" clip-path="url(#p766132f26c)" style="fill: #bcbd22"/>
   </g>
   <g id="patch_200">
    <path d="M 263.332174 243.000834 
L 271.095652 243.000834 
L 271.095652 230.279907 
L 263.332174 230.279907 
z
" clip-path="url(#p766132f26c)" style="fill: #bcbd22"/>
   </g>
   <g id="patch_201">
    <path d="M 278.85913 259.635892 
L 286.622609 259.635892 
L 286.622609 239.086703 
L 278.85913 239.086703 
z
" clip-path="url(#p766132f26c)" style="fill: #bcbd22"/>
   </g>
   <g id="patch_202">
    <path d="M 294.386087 229.301375 
L 302.149565 229.301375 
L 302.149565 211.687784 
L 294.386087 211.687784 
z
" clip-path="url(#p766132f26c)" style="fill: #bcbd22"/>
   </g>
   <g id="patch_203">
    <path d="M 309.913043 242.022301 
L 317.676522 242.022301 
L 317.676522 224.40871 
L 309.913043 224.40871 
z
" clip-path="url(#p766132f26c)" style="fill: #bcbd22"/>
   </g>
   <g id="patch_204">
    <path d="M 325.44 234.194039 
L 333.203478 234.194039 
L 333.203478 221.473112 
L 325.44 221.473112 
z
" clip-path="url(#p766132f26c)" style="fill: #bcbd22"/>
   </g>
   <g id="patch_205">
    <path d="M 340.966957 213.644849 
L 348.730435 213.644849 
L 348.730435 188.202996 
L 340.966957 188.202996 
z
" clip-path="url(#p766132f26c)" style="fill: #bcbd22"/>
   </g>
   <g id="patch_206">
    <path d="M 356.493913 237.129637 
L 364.257391 237.129637 
L 364.257391 227.344309 
L 356.493913 227.344309 
z
" clip-path="url(#p766132f26c)" style="fill: #bcbd22"/>
   </g>
   <g id="patch_207">
    <path d="M 372.02087 241.043768 
L 379.784348 241.043768 
L 379.784348 231.25844 
L 372.02087 231.25844 
z
" clip-path="url(#p766132f26c)" style="fill: #bcbd22"/>
   </g>
   <g id="patch_208">
    <path d="M 387.547826 242.022301 
L 395.311304 242.022301 
L 395.311304 231.25844 
L 387.547826 231.25844 
z
" clip-path="url(#p766132f26c)" style="fill: #bcbd22"/>
   </g>
   <g id="patch_209">
    <path d="M 403.074783 255.721761 
L 410.838261 255.721761 
L 410.838261 247.893498 
L 403.074783 247.893498 
z
" clip-path="url(#p766132f26c)" style="fill: #bcbd22"/>
   </g>
   <g id="matplotlib.axis_1">
    <g id="xtick_1">
     <g id="line2d_1">
      <defs>
       <path id="mfe0eae89f5" d="M 0 0 
L 0 3.5 
" style="stroke: #000000; stroke-width: 0.8"/>
      </defs>
      <g>
       <use xlink:href="#mfe0eae89f5" x="65.363478" y="307.584" style="stroke: #000000; stroke-width: 0.8"/>
      </g>
     </g>
     <g id="text_1">
      <!-- 2001 -->
      <g transform="translate(68.122853 340.034) rotate(-90) scale(0.1 -0.1)">
       <defs>
        <path id="DejaVuSans-32" d="M 1228 531 
L 3431 531 
L 3431 0 
L 469 0 
L 469 531 
Q 828 903 1448 1529 
Q 2069 2156 2228 2338 
Q 2531 2678 2651 2914 
Q 2772 3150 2772 3378 
Q 2772 3750 2511 3984 
Q 2250 4219 1831 4219 
Q 1534 4219 1204 4116 
Q 875 4013 500 3803 
L 500 4441 
Q 881 4594 1212 4672 
Q 1544 4750 1819 4750 
Q 2544 4750 2975 4387 
Q 3406 4025 3406 3419 
Q 3406 3131 3298 2873 
Q 3191 2616 2906 2266 
Q 2828 2175 2409 1742 
Q 1991 1309 1228 531 
z
" transform="scale(0.015625)"/>
        <path id="DejaVuSans-30" d="M 2034 4250 
Q 1547 4250 1301 3770 
Q 1056 3291 1056 2328 
Q 1056 1369 1301 889 
Q 1547 409 2034 409 
Q 2525 409 2770 889 
Q 3016 1369 3016 2328 
Q 3016 3291 2770 3770 
Q 2525 4250 2034 4250 
z
M 2034 4750 
Q 2819 4750 3233 4129 
Q 3647 3509 3647 2328 
Q 3647 1150 3233 529 
Q 2819 -91 2034 -91 
Q 1250 -91 836 529 
Q 422 1150 422 2328 
Q 422 3509 836 4129 
Q 1250 4750 2034 4750 
z
" transform="scale(0.015625)"/>
        <path id="DejaVuSans-31" d="M 794 531 
L 1825 531 
L 1825 4091 
L 703 3866 
L 703 4441 
L 1819 4666 
L 2450 4666 
L 2450 531 
L 3481 531 
L 3481 0 
L 794 0 
L 794 531 
z
" transform="scale(0.015625)"/>
       </defs>
       <use xlink:href="#DejaVuSans-32"/>
       <use xlink:href="#DejaVuSans-30" x="63.623047"/>
       <use xlink:href="#DejaVuSans-30" x="127.246094"/>
       <use xlink:href="#DejaVuSans-31" x="190.869141"/>
      </g>
     </g>
    </g>
    <g id="xtick_2">
     <g id="line2d_2">
      <g>
       <use xlink:href="#mfe0eae89f5" x="80.890435" y="307.584" style="stroke: #000000; stroke-width: 0.8"/>
      </g>
     </g>
     <g id="text_2">
      <!-- 2002 -->
      <g transform="translate(83.64981 340.034) rotate(-90) scale(0.1 -0.1)">
       <use xlink:href="#DejaVuSans-32"/>
       <use xlink:href="#DejaVuSans-30" x="63.623047"/>
       <use xlink:href="#DejaVuSans-30" x="127.246094"/>
       <use xlink:href="#DejaVuSans-32" x="190.869141"/>
      </g>
     </g>
    </g>
    <g id="xtick_3">
     <g id="line2d_3">
      <g>
       <use xlink:href="#mfe0eae89f5" x="96.417391" y="307.584" style="stroke: #000000; stroke-width: 0.8"/>
      </g>
     </g>
     <g id="text_3">
      <!-- 2003 -->
      <g transform="translate(99.176766 340.034) rotate(-90) scale(0.1 -0.1)">
       <defs>
        <path id="DejaVuSans-33" d="M 2597 2516 
Q 3050 2419 3304 2112 
Q 3559 1806 3559 1356 
Q 3559 666 3084 287 
Q 2609 -91 1734 -91 
Q 1441 -91 1130 -33 
Q 819 25 488 141 
L 488 750 
Q 750 597 1062 519 
Q 1375 441 1716 441 
Q 2309 441 2620 675 
Q 2931 909 2931 1356 
Q 2931 1769 2642 2001 
Q 2353 2234 1838 2234 
L 1294 2234 
L 1294 2753 
L 1863 2753 
Q 2328 2753 2575 2939 
Q 2822 3125 2822 3475 
Q 2822 3834 2567 4026 
Q 2313 4219 1838 4219 
Q 1578 4219 1281 4162 
Q 984 4106 628 3988 
L 628 4550 
Q 988 4650 1302 4700 
Q 1616 4750 1894 4750 
Q 2613 4750 3031 4423 
Q 3450 4097 3450 3541 
Q 3450 3153 3228 2886 
Q 3006 2619 2597 2516 
z
" transform="scale(0.015625)"/>
       </defs>
       <use xlink:href="#DejaVuSans-32"/>
       <use xlink:href="#DejaVuSans-30" x="63.623047"/>
       <use xlink:href="#DejaVuSans-30" x="127.246094"/>
       <use xlink:href="#DejaVuSans-33" x="190.869141"/>
      </g>
     </g>
    </g>
    <g id="xtick_4">
     <g id="line2d_4">
      <g>
       <use xlink:href="#mfe0eae89f5" x="111.944348" y="307.584" style="stroke: #000000; stroke-width: 0.8"/>
      </g>
     </g>
     <g id="text_4">
      <!-- 2004 -->
      <g transform="translate(114.703723 340.034) rotate(-90) scale(0.1 -0.1)">
       <defs>
        <path id="DejaVuSans-34" d="M 2419 4116 
L 825 1625 
L 2419 1625 
L 2419 4116 
z
M 2253 4666 
L 3047 4666 
L 3047 1625 
L 3713 1625 
L 3713 1100 
L 3047 1100 
L 3047 0 
L 2419 0 
L 2419 1100 
L 313 1100 
L 313 1709 
L 2253 4666 
z
" transform="scale(0.015625)"/>
       </defs>
       <use xlink:href="#DejaVuSans-32"/>
       <use xlink:href="#DejaVuSans-30" x="63.623047"/>
       <use xlink:href="#DejaVuSans-30" x="127.246094"/>
       <use xlink:href="#DejaVuSans-34" x="190.869141"/>
      </g>
     </g>
    </g>
    <g id="xtick_5">
     <g id="line2d_5">
      <g>
       <use xlink:href="#mfe0eae89f5" x="127.471304" y="307.584" style="stroke: #000000; stroke-width: 0.8"/>
      </g>
     </g>
     <g id="text_5">
      <!-- 2005 -->
      <g transform="translate(130.230679 340.034) rotate(-90) scale(0.1 -0.1)">
       <defs>
        <path id="DejaVuSans-35" d="M 691 4666 
L 3169 4666 
L 3169 4134 
L 1269 4134 
L 1269 2991 
Q 1406 3038 1543 3061 
Q 1681 3084 1819 3084 
Q 2600 3084 3056 2656 
Q 3513 2228 3513 1497 
Q 3513 744 3044 326 
Q 2575 -91 1722 -91 
Q 1428 -91 1123 -41 
Q 819 9 494 109 
L 494 744 
Q 775 591 1075 516 
Q 1375 441 1709 441 
Q 2250 441 2565 725 
Q 2881 1009 2881 1497 
Q 2881 1984 2565 2268 
Q 2250 2553 1709 2553 
Q 1456 2553 1204 2497 
Q 953 2441 691 2322 
L 691 4666 
z
" transform="scale(0.015625)"/>
       </defs>
       <use xlink:href="#DejaVuSans-32"/>
       <use xlink:href="#DejaVuSans-30" x="63.623047"/>
       <use xlink:href="#DejaVuSans-30" x="127.246094"/>
       <use xlink:href="#DejaVuSans-35" x="190.869141"/>
      </g>
     </g>
    </g>
    <g id="xtick_6">
     <g id="line2d_6">
      <g>
       <use xlink:href="#mfe0eae89f5" x="142.998261" y="307.584" style="stroke: #000000; stroke-width: 0.8"/>
      </g>
     </g>
     <g id="text_6">
      <!-- 2006 -->
      <g transform="translate(145.757636 340.034) rotate(-90) scale(0.1 -0.1)">
       <defs>
        <path id="DejaVuSans-36" d="M 2113 2584 
Q 1688 2584 1439 2293 
Q 1191 2003 1191 1497 
Q 1191 994 1439 701 
Q 1688 409 2113 409 
Q 2538 409 2786 701 
Q 3034 994 3034 1497 
Q 3034 2003 2786 2293 
Q 2538 2584 2113 2584 
z
M 3366 4563 
L 3366 3988 
Q 3128 4100 2886 4159 
Q 2644 4219 2406 4219 
Q 1781 4219 1451 3797 
Q 1122 3375 1075 2522 
Q 1259 2794 1537 2939 
Q 1816 3084 2150 3084 
Q 2853 3084 3261 2657 
Q 3669 2231 3669 1497 
Q 3669 778 3244 343 
Q 2819 -91 2113 -91 
Q 1303 -91 875 529 
Q 447 1150 447 2328 
Q 447 3434 972 4092 
Q 1497 4750 2381 4750 
Q 2619 4750 2861 4703 
Q 3103 4656 3366 4563 
z
" transform="scale(0.015625)"/>
       </defs>
       <use xlink:href="#DejaVuSans-32"/>
       <use xlink:href="#DejaVuSans-30" x="63.623047"/>
       <use xlink:href="#DejaVuSans-30" x="127.246094"/>
       <use xlink:href="#DejaVuSans-36" x="190.869141"/>
      </g>
     </g>
    </g>
    <g id="xtick_7">
     <g id="line2d_7">
      <g>
       <use xlink:href="#mfe0eae89f5" x="158.525217" y="307.584" style="stroke: #000000; stroke-width: 0.8"/>
      </g>
     </g>
     <g id="text_7">
      <!-- 2007 -->
      <g transform="translate(161.284592 340.034) rotate(-90) scale(0.1 -0.1)">
       <defs>
        <path id="DejaVuSans-37" d="M 525 4666 
L 3525 4666 
L 3525 4397 
L 1831 0 
L 1172 0 
L 2766 4134 
L 525 4134 
L 525 4666 
z
" transform="scale(0.015625)"/>
       </defs>
       <use xlink:href="#DejaVuSans-32"/>
       <use xlink:href="#DejaVuSans-30" x="63.623047"/>
       <use xlink:href="#DejaVuSans-30" x="127.246094"/>
       <use xlink:href="#DejaVuSans-37" x="190.869141"/>
      </g>
     </g>
    </g>
    <g id="xtick_8">
     <g id="line2d_8">
      <g>
       <use xlink:href="#mfe0eae89f5" x="174.052174" y="307.584" style="stroke: #000000; stroke-width: 0.8"/>
      </g>
     </g>
     <g id="text_8">
      <!-- 2008 -->
      <g transform="translate(176.811549 340.034) rotate(-90) scale(0.1 -0.1)">
       <defs>
        <path id="DejaVuSans-38" d="M 2034 2216 
Q 1584 2216 1326 1975 
Q 1069 1734 1069 1313 
Q 1069 891 1326 650 
Q 1584 409 2034 409 
Q 2484 409 2743 651 
Q 3003 894 3003 1313 
Q 3003 1734 2745 1975 
Q 2488 2216 2034 2216 
z
M 1403 2484 
Q 997 2584 770 2862 
Q 544 3141 544 3541 
Q 544 4100 942 4425 
Q 1341 4750 2034 4750 
Q 2731 4750 3128 4425 
Q 3525 4100 3525 3541 
Q 3525 3141 3298 2862 
Q 3072 2584 2669 2484 
Q 3125 2378 3379 2068 
Q 3634 1759 3634 1313 
Q 3634 634 3220 271 
Q 2806 -91 2034 -91 
Q 1263 -91 848 271 
Q 434 634 434 1313 
Q 434 1759 690 2068 
Q 947 2378 1403 2484 
z
M 1172 3481 
Q 1172 3119 1398 2916 
Q 1625 2713 2034 2713 
Q 2441 2713 2670 2916 
Q 2900 3119 2900 3481 
Q 2900 3844 2670 4047 
Q 2441 4250 2034 4250 
Q 1625 4250 1398 4047 
Q 1172 3844 1172 3481 
z
" transform="scale(0.015625)"/>
       </defs>
       <use xlink:href="#DejaVuSans-32"/>
       <use xlink:href="#DejaVuSans-30" x="63.623047"/>
       <use xlink:href="#DejaVuSans-30" x="127.246094"/>
       <use xlink:href="#DejaVuSans-38" x="190.869141"/>
      </g>
     </g>
    </g>
    <g id="xtick_9">
     <g id="line2d_9">
      <g>
       <use xlink:href="#mfe0eae89f5" x="189.57913" y="307.584" style="stroke: #000000; stroke-width: 0.8"/>
      </g>
     </g>
     <g id="text_9">
      <!-- 2009 -->
      <g transform="translate(192.338505 340.034) rotate(-90) scale(0.1 -0.1)">
       <defs>
        <path id="DejaVuSans-39" d="M 703 97 
L 703 672 
Q 941 559 1184 500 
Q 1428 441 1663 441 
Q 2288 441 2617 861 
Q 2947 1281 2994 2138 
Q 2813 1869 2534 1725 
Q 2256 1581 1919 1581 
Q 1219 1581 811 2004 
Q 403 2428 403 3163 
Q 403 3881 828 4315 
Q 1253 4750 1959 4750 
Q 2769 4750 3195 4129 
Q 3622 3509 3622 2328 
Q 3622 1225 3098 567 
Q 2575 -91 1691 -91 
Q 1453 -91 1209 -44 
Q 966 3 703 97 
z
M 1959 2075 
Q 2384 2075 2632 2365 
Q 2881 2656 2881 3163 
Q 2881 3666 2632 3958 
Q 2384 4250 1959 4250 
Q 1534 4250 1286 3958 
Q 1038 3666 1038 3163 
Q 1038 2656 1286 2365 
Q 1534 2075 1959 2075 
z
" transform="scale(0.015625)"/>
       </defs>
       <use xlink:href="#DejaVuSans-32"/>
       <use xlink:href="#DejaVuSans-30" x="63.623047"/>
       <use xlink:href="#DejaVuSans-30" x="127.246094"/>
       <use xlink:href="#DejaVuSans-39" x="190.869141"/>
      </g>
     </g>
    </g>
    <g id="xtick_10">
     <g id="line2d_10">
      <g>
       <use xlink:href="#mfe0eae89f5" x="205.106087" y="307.584" style="stroke: #000000; stroke-width: 0.8"/>
      </g>
     </g>
     <g id="text_10">
      <!-- 2010 -->
      <g transform="translate(207.865462 340.034) rotate(-90) scale(0.1 -0.1)">
       <use xlink:href="#DejaVuSans-32"/>
       <use xlink:href="#DejaVuSans-30" x="63.623047"/>
       <use xlink:href="#DejaVuSans-31" x="127.246094"/>
       <use xlink:href="#DejaVuSans-30" x="190.869141"/>
      </g>
     </g>
    </g>
    <g id="xtick_11">
     <g id="line2d_11">
      <g>
       <use xlink:href="#mfe0eae89f5" x="220.633043" y="307.584" style="stroke: #000000; stroke-width: 0.8"/>
      </g>
     </g>
     <g id="text_11">
      <!-- 2011 -->
      <g transform="translate(223.392418 340.034) rotate(-90) scale(0.1 -0.1)">
       <use xlink:href="#DejaVuSans-32"/>
       <use xlink:href="#DejaVuSans-30" x="63.623047"/>
       <use xlink:href="#DejaVuSans-31" x="127.246094"/>
       <use xlink:href="#DejaVuSans-31" x="190.869141"/>
      </g>
     </g>
    </g>
    <g id="xtick_12">
     <g id="line2d_12">
      <g>
       <use xlink:href="#mfe0eae89f5" x="236.16" y="307.584" style="stroke: #000000; stroke-width: 0.8"/>
      </g>
     </g>
     <g id="text_12">
      <!-- 2012 -->
      <g transform="translate(238.919375 340.034) rotate(-90) scale(0.1 -0.1)">
       <use xlink:href="#DejaVuSans-32"/>
       <use xlink:href="#DejaVuSans-30" x="63.623047"/>
       <use xlink:href="#DejaVuSans-31" x="127.246094"/>
       <use xlink:href="#DejaVuSans-32" x="190.869141"/>
      </g>
     </g>
    </g>
    <g id="xtick_13">
     <g id="line2d_13">
      <g>
       <use xlink:href="#mfe0eae89f5" x="251.686957" y="307.584" style="stroke: #000000; stroke-width: 0.8"/>
      </g>
     </g>
     <g id="text_13">
      <!-- 2013 -->
      <g transform="translate(254.446332 340.034) rotate(-90) scale(0.1 -0.1)">
       <use xlink:href="#DejaVuSans-32"/>
       <use xlink:href="#DejaVuSans-30" x="63.623047"/>
       <use xlink:href="#DejaVuSans-31" x="127.246094"/>
       <use xlink:href="#DejaVuSans-33" x="190.869141"/>
      </g>
     </g>
    </g>
    <g id="xtick_14">
     <g id="line2d_14">
      <g>
       <use xlink:href="#mfe0eae89f5" x="267.213913" y="307.584" style="stroke: #000000; stroke-width: 0.8"/>
      </g>
     </g>
     <g id="text_14">
      <!-- 2014 -->
      <g transform="translate(269.973288 340.034) rotate(-90) scale(0.1 -0.1)">
       <use xlink:href="#DejaVuSans-32"/>
       <use xlink:href="#DejaVuSans-30" x="63.623047"/>
       <use xlink:href="#DejaVuSans-31" x="127.246094"/>
       <use xlink:href="#DejaVuSans-34" x="190.869141"/>
      </g>
     </g>
    </g>
    <g id="xtick_15">
     <g id="line2d_15">
      <g>
       <use xlink:href="#mfe0eae89f5" x="282.74087" y="307.584" style="stroke: #000000; stroke-width: 0.8"/>
      </g>
     </g>
     <g id="text_15">
      <!-- 2015 -->
      <g transform="translate(285.500245 340.034) rotate(-90) scale(0.1 -0.1)">
       <use xlink:href="#DejaVuSans-32"/>
       <use xlink:href="#DejaVuSans-30" x="63.623047"/>
       <use xlink:href="#DejaVuSans-31" x="127.246094"/>
       <use xlink:href="#DejaVuSans-35" x="190.869141"/>
      </g>
     </g>
    </g>
    <g id="xtick_16">
     <g id="line2d_16">
      <g>
       <use xlink:href="#mfe0eae89f5" x="298.267826" y="307.584" style="stroke: #000000; stroke-width: 0.8"/>
      </g>
     </g>
     <g id="text_16">
      <!-- 2016 -->
      <g transform="translate(301.027201 340.034) rotate(-90) scale(0.1 -0.1)">
       <use xlink:href="#DejaVuSans-32"/>
       <use xlink:href="#DejaVuSans-30" x="63.623047"/>
       <use xlink:href="#DejaVuSans-31" x="127.246094"/>
       <use xlink:href="#DejaVuSans-36" x="190.869141"/>
      </g>
     </g>
    </g>
    <g id="xtick_17">
     <g id="line2d_17">
      <g>
       <use xlink:href="#mfe0eae89f5" x="313.794783" y="307.584" style="stroke: #000000; stroke-width: 0.8"/>
      </g>
     </g>
     <g id="text_17">
      <!-- 2017 -->
      <g transform="translate(316.554158 340.034) rotate(-90) scale(0.1 -0.1)">
       <use xlink:href="#DejaVuSans-32"/>
       <use xlink:href="#DejaVuSans-30" x="63.623047"/>
       <use xlink:href="#DejaVuSans-31" x="127.246094"/>
       <use xlink:href="#DejaVuSans-37" x="190.869141"/>
      </g>
     </g>
    </g>
    <g id="xtick_18">
     <g id="line2d_18">
      <g>
       <use xlink:href="#mfe0eae89f5" x="329.321739" y="307.584" style="stroke: #000000; stroke-width: 0.8"/>
      </g>
     </g>
     <g id="text_18">
      <!-- 2018 -->
      <g transform="translate(332.081114 340.034) rotate(-90) scale(0.1 -0.1)">
       <use xlink:href="#DejaVuSans-32"/>
       <use xlink:href="#DejaVuSans-30" x="63.623047"/>
       <use xlink:href="#DejaVuSans-31" x="127.246094"/>
       <use xlink:href="#DejaVuSans-38" x="190.869141"/>
      </g>
     </g>
    </g>
    <g id="xtick_19">
     <g id="line2d_19">
      <g>
       <use xlink:href="#mfe0eae89f5" x="344.848696" y="307.584" style="stroke: #000000; stroke-width: 0.8"/>
      </g>
     </g>
     <g id="text_19">
      <!-- 2019 -->
      <g transform="translate(347.608071 340.034) rotate(-90) scale(0.1 -0.1)">
       <use xlink:href="#DejaVuSans-32"/>
       <use xlink:href="#DejaVuSans-30" x="63.623047"/>
       <use xlink:href="#DejaVuSans-31" x="127.246094"/>
       <use xlink:href="#DejaVuSans-39" x="190.869141"/>
      </g>
     </g>
    </g>
    <g id="xtick_20">
     <g id="line2d_20">
      <g>
       <use xlink:href="#mfe0eae89f5" x="360.375652" y="307.584" style="stroke: #000000; stroke-width: 0.8"/>
      </g>
     </g>
     <g id="text_20">
      <!-- 2020 -->
      <g transform="translate(363.135027 340.034) rotate(-90) scale(0.1 -0.1)">
       <use xlink:href="#DejaVuSans-32"/>
       <use xlink:href="#DejaVuSans-30" x="63.623047"/>
       <use xlink:href="#DejaVuSans-32" x="127.246094"/>
       <use xlink:href="#DejaVuSans-30" x="190.869141"/>
      </g>
     </g>
    </g>
    <g id="xtick_21">
     <g id="line2d_21">
      <g>
       <use xlink:href="#mfe0eae89f5" x="375.902609" y="307.584" style="stroke: #000000; stroke-width: 0.8"/>
      </g>
     </g>
     <g id="text_21">
      <!-- 2021 -->
      <g transform="translate(378.661984 340.034) rotate(-90) scale(0.1 -0.1)">
       <use xlink:href="#DejaVuSans-32"/>
       <use xlink:href="#DejaVuSans-30" x="63.623047"/>
       <use xlink:href="#DejaVuSans-32" x="127.246094"/>
       <use xlink:href="#DejaVuSans-31" x="190.869141"/>
      </g>
     </g>
    </g>
    <g id="xtick_22">
     <g id="line2d_22">
      <g>
       <use xlink:href="#mfe0eae89f5" x="391.429565" y="307.584" style="stroke: #000000; stroke-width: 0.8"/>
      </g>
     </g>
     <g id="text_22">
      <!-- 2022 -->
      <g transform="translate(394.18894 340.034) rotate(-90) scale(0.1 -0.1)">
       <use xlink:href="#DejaVuSans-32"/>
       <use xlink:href="#DejaVuSans-30" x="63.623047"/>
       <use xlink:href="#DejaVuSans-32" x="127.246094"/>
       <use xlink:href="#DejaVuSans-32" x="190.869141"/>
      </g>
     </g>
    </g>
    <g id="xtick_23">
     <g id="line2d_23">
      <g>
       <use xlink:href="#mfe0eae89f5" x="406.956522" y="307.584" style="stroke: #000000; stroke-width: 0.8"/>
      </g>
     </g>
     <g id="text_23">
      <!-- 2023 -->
      <g transform="translate(409.715897 340.034) rotate(-90) scale(0.1 -0.1)">
       <use xlink:href="#DejaVuSans-32"/>
       <use xlink:href="#DejaVuSans-30" x="63.623047"/>
       <use xlink:href="#DejaVuSans-32" x="127.246094"/>
       <use xlink:href="#DejaVuSans-33" x="190.869141"/>
      </g>
     </g>
    </g>
    <g id="text_24">
     <!-- Sitzungsdatum -->
     <g transform="translate(198.658437 351.632437) scale(0.1 -0.1)">
      <defs>
       <path id="DejaVuSans-53" d="M 3425 4513 
L 3425 3897 
Q 3066 4069 2747 4153 
Q 2428 4238 2131 4238 
Q 1616 4238 1336 4038 
Q 1056 3838 1056 3469 
Q 1056 3159 1242 3001 
Q 1428 2844 1947 2747 
L 2328 2669 
Q 3034 2534 3370 2195 
Q 3706 1856 3706 1288 
Q 3706 609 3251 259 
Q 2797 -91 1919 -91 
Q 1588 -91 1214 -16 
Q 841 59 441 206 
L 441 856 
Q 825 641 1194 531 
Q 1563 422 1919 422 
Q 2459 422 2753 634 
Q 3047 847 3047 1241 
Q 3047 1584 2836 1778 
Q 2625 1972 2144 2069 
L 1759 2144 
Q 1053 2284 737 2584 
Q 422 2884 422 3419 
Q 422 4038 858 4394 
Q 1294 4750 2059 4750 
Q 2388 4750 2728 4690 
Q 3069 4631 3425 4513 
z
" transform="scale(0.015625)"/>
       <path id="DejaVuSans-69" d="M 603 3500 
L 1178 3500 
L 1178 0 
L 603 0 
L 603 3500 
z
M 603 4863 
L 1178 4863 
L 1178 4134 
L 603 4134 
L 603 4863 
z
" transform="scale(0.015625)"/>
       <path id="DejaVuSans-74" d="M 1172 4494 
L 1172 3500 
L 2356 3500 
L 2356 3053 
L 1172 3053 
L 1172 1153 
Q 1172 725 1289 603 
Q 1406 481 1766 481 
L 2356 481 
L 2356 0 
L 1766 0 
Q 1100 0 847 248 
Q 594 497 594 1153 
L 594 3053 
L 172 3053 
L 172 3500 
L 594 3500 
L 594 4494 
L 1172 4494 
z
" transform="scale(0.015625)"/>
       <path id="DejaVuSans-7a" d="M 353 3500 
L 3084 3500 
L 3084 2975 
L 922 459 
L 3084 459 
L 3084 0 
L 275 0 
L 275 525 
L 2438 3041 
L 353 3041 
L 353 3500 
z
" transform="scale(0.015625)"/>
       <path id="DejaVuSans-75" d="M 544 1381 
L 544 3500 
L 1119 3500 
L 1119 1403 
Q 1119 906 1312 657 
Q 1506 409 1894 409 
Q 2359 409 2629 706 
Q 2900 1003 2900 1516 
L 2900 3500 
L 3475 3500 
L 3475 0 
L 2900 0 
L 2900 538 
Q 2691 219 2414 64 
Q 2138 -91 1772 -91 
Q 1169 -91 856 284 
Q 544 659 544 1381 
z
M 1991 3584 
L 1991 3584 
z
" transform="scale(0.015625)"/>
       <path id="DejaVuSans-6e" d="M 3513 2113 
L 3513 0 
L 2938 0 
L 2938 2094 
Q 2938 2591 2744 2837 
Q 2550 3084 2163 3084 
Q 1697 3084 1428 2787 
Q 1159 2491 1159 1978 
L 1159 0 
L 581 0 
L 581 3500 
L 1159 3500 
L 1159 2956 
Q 1366 3272 1645 3428 
Q 1925 3584 2291 3584 
Q 2894 3584 3203 3211 
Q 3513 2838 3513 2113 
z
" transform="scale(0.015625)"/>
       <path id="DejaVuSans-67" d="M 2906 1791 
Q 2906 2416 2648 2759 
Q 2391 3103 1925 3103 
Q 1463 3103 1205 2759 
Q 947 2416 947 1791 
Q 947 1169 1205 825 
Q 1463 481 1925 481 
Q 2391 481 2648 825 
Q 2906 1169 2906 1791 
z
M 3481 434 
Q 3481 -459 3084 -895 
Q 2688 -1331 1869 -1331 
Q 1566 -1331 1297 -1286 
Q 1028 -1241 775 -1147 
L 775 -588 
Q 1028 -725 1275 -790 
Q 1522 -856 1778 -856 
Q 2344 -856 2625 -561 
Q 2906 -266 2906 331 
L 2906 616 
Q 2728 306 2450 153 
Q 2172 0 1784 0 
Q 1141 0 747 490 
Q 353 981 353 1791 
Q 353 2603 747 3093 
Q 1141 3584 1784 3584 
Q 2172 3584 2450 3431 
Q 2728 3278 2906 2969 
L 2906 3500 
L 3481 3500 
L 3481 434 
z
" transform="scale(0.015625)"/>
       <path id="DejaVuSans-73" d="M 2834 3397 
L 2834 2853 
Q 2591 2978 2328 3040 
Q 2066 3103 1784 3103 
Q 1356 3103 1142 2972 
Q 928 2841 928 2578 
Q 928 2378 1081 2264 
Q 1234 2150 1697 2047 
L 1894 2003 
Q 2506 1872 2764 1633 
Q 3022 1394 3022 966 
Q 3022 478 2636 193 
Q 2250 -91 1575 -91 
Q 1294 -91 989 -36 
Q 684 19 347 128 
L 347 722 
Q 666 556 975 473 
Q 1284 391 1588 391 
Q 1994 391 2212 530 
Q 2431 669 2431 922 
Q 2431 1156 2273 1281 
Q 2116 1406 1581 1522 
L 1381 1569 
Q 847 1681 609 1914 
Q 372 2147 372 2553 
Q 372 3047 722 3315 
Q 1072 3584 1716 3584 
Q 2034 3584 2315 3537 
Q 2597 3491 2834 3397 
z
" transform="scale(0.015625)"/>
       <path id="DejaVuSans-64" d="M 2906 2969 
L 2906 4863 
L 3481 4863 
L 3481 0 
L 2906 0 
L 2906 525 
Q 2725 213 2448 61 
Q 2172 -91 1784 -91 
Q 1150 -91 751 415 
Q 353 922 353 1747 
Q 353 2572 751 3078 
Q 1150 3584 1784 3584 
Q 2172 3584 2448 3432 
Q 2725 3281 2906 2969 
z
M 947 1747 
Q 947 1113 1208 752 
Q 1469 391 1925 391 
Q 2381 391 2643 752 
Q 2906 1113 2906 1747 
Q 2906 2381 2643 2742 
Q 2381 3103 1925 3103 
Q 1469 3103 1208 2742 
Q 947 2381 947 1747 
z
" transform="scale(0.015625)"/>
       <path id="DejaVuSans-61" d="M 2194 1759 
Q 1497 1759 1228 1600 
Q 959 1441 959 1056 
Q 959 750 1161 570 
Q 1363 391 1709 391 
Q 2188 391 2477 730 
Q 2766 1069 2766 1631 
L 2766 1759 
L 2194 1759 
z
M 3341 1997 
L 3341 0 
L 2766 0 
L 2766 531 
Q 2569 213 2275 61 
Q 1981 -91 1556 -91 
Q 1019 -91 701 211 
Q 384 513 384 1019 
Q 384 1609 779 1909 
Q 1175 2209 1959 2209 
L 2766 2209 
L 2766 2266 
Q 2766 2663 2505 2880 
Q 2244 3097 1772 3097 
Q 1472 3097 1187 3025 
Q 903 2953 641 2809 
L 641 3341 
Q 956 3463 1253 3523 
Q 1550 3584 1831 3584 
Q 2591 3584 2966 3190 
Q 3341 2797 3341 1997 
z
" transform="scale(0.015625)"/>
       <path id="DejaVuSans-6d" d="M 3328 2828 
Q 3544 3216 3844 3400 
Q 4144 3584 4550 3584 
Q 5097 3584 5394 3201 
Q 5691 2819 5691 2113 
L 5691 0 
L 5113 0 
L 5113 2094 
Q 5113 2597 4934 2840 
Q 4756 3084 4391 3084 
Q 3944 3084 3684 2787 
Q 3425 2491 3425 1978 
L 3425 0 
L 2847 0 
L 2847 2094 
Q 2847 2600 2669 2842 
Q 2491 3084 2119 3084 
Q 1678 3084 1418 2786 
Q 1159 2488 1159 1978 
L 1159 0 
L 581 0 
L 581 3500 
L 1159 3500 
L 1159 2956 
Q 1356 3278 1631 3431 
Q 1906 3584 2284 3584 
Q 2666 3584 2933 3390 
Q 3200 3197 3328 2828 
z
" transform="scale(0.015625)"/>
      </defs>
      <use xlink:href="#DejaVuSans-53"/>
      <use xlink:href="#DejaVuSans-69" x="63.476562"/>
      <use xlink:href="#DejaVuSans-74" x="91.259766"/>
      <use xlink:href="#DejaVuSans-7a" x="130.46875"/>
      <use xlink:href="#DejaVuSans-75" x="182.958984"/>
      <use xlink:href="#DejaVuSans-6e" x="246.337891"/>
      <use xlink:href="#DejaVuSans-67" x="309.716797"/>
      <use xlink:href="#DejaVuSans-73" x="373.193359"/>
      <use xlink:href="#DejaVuSans-64" x="425.292969"/>
      <use xlink:href="#DejaVuSans-61" x="488.769531"/>
      <use xlink:href="#DejaVuSans-74" x="550.048828"/>
      <use xlink:href="#DejaVuSans-75" x="589.257812"/>
      <use xlink:href="#DejaVuSans-6d" x="652.636719"/>
     </g>
    </g>
   </g>
   <g id="matplotlib.axis_2">
    <g id="ytick_1">
     <g id="line2d_24">
      <defs>
       <path id="m0d4d5df745" d="M 0 0 
L -3.5 0 
" style="stroke: #000000; stroke-width: 0.8"/>
      </defs>
      <g>
       <use xlink:href="#m0d4d5df745" x="57.6" y="307.584" style="stroke: #000000; stroke-width: 0.8"/>
      </g>
     </g>
     <g id="text_25">
      <!-- 0 -->
      <g transform="translate(44.2375 311.383219) scale(0.1 -0.1)">
       <use xlink:href="#DejaVuSans-30"/>
      </g>
     </g>
    </g>
    <g id="ytick_2">
     <g id="line2d_25">
      <g>
       <use xlink:href="#m0d4d5df745" x="57.6" y="258.657359" style="stroke: #000000; stroke-width: 0.8"/>
      </g>
     </g>
     <g id="text_26">
      <!-- 50 -->
      <g transform="translate(37.875 262.456578) scale(0.1 -0.1)">
       <use xlink:href="#DejaVuSans-35"/>
       <use xlink:href="#DejaVuSans-30" x="63.623047"/>
      </g>
     </g>
    </g>
    <g id="ytick_3">
     <g id="line2d_26">
      <g>
       <use xlink:href="#m0d4d5df745" x="57.6" y="209.730718" style="stroke: #000000; stroke-width: 0.8"/>
      </g>
     </g>
     <g id="text_27">
      <!-- 100 -->
      <g transform="translate(31.5125 213.529937) scale(0.1 -0.1)">
       <use xlink:href="#DejaVuSans-31"/>
       <use xlink:href="#DejaVuSans-30" x="63.623047"/>
       <use xlink:href="#DejaVuSans-30" x="127.246094"/>
      </g>
     </g>
    </g>
    <g id="ytick_4">
     <g id="line2d_27">
      <g>
       <use xlink:href="#m0d4d5df745" x="57.6" y="160.804077" style="stroke: #000000; stroke-width: 0.8"/>
      </g>
     </g>
     <g id="text_28">
      <!-- 150 -->
      <g transform="translate(31.5125 164.603296) scale(0.1 -0.1)">
       <use xlink:href="#DejaVuSans-31"/>
       <use xlink:href="#DejaVuSans-35" x="63.623047"/>
       <use xlink:href="#DejaVuSans-30" x="127.246094"/>
      </g>
     </g>
    </g>
    <g id="ytick_5">
     <g id="line2d_28">
      <g>
       <use xlink:href="#m0d4d5df745" x="57.6" y="111.877436" style="stroke: #000000; stroke-width: 0.8"/>
      </g>
     </g>
     <g id="text_29">
      <!-- 200 -->
      <g transform="translate(31.5125 115.676655) scale(0.1 -0.1)">
       <use xlink:href="#DejaVuSans-32"/>
       <use xlink:href="#DejaVuSans-30" x="63.623047"/>
       <use xlink:href="#DejaVuSans-30" x="127.246094"/>
      </g>
     </g>
    </g>
    <g id="ytick_6">
     <g id="line2d_29">
      <g>
       <use xlink:href="#m0d4d5df745" x="57.6" y="62.950795" style="stroke: #000000; stroke-width: 0.8"/>
      </g>
     </g>
     <g id="text_30">
      <!-- 250 -->
      <g transform="translate(31.5125 66.750014) scale(0.1 -0.1)">
       <use xlink:href="#DejaVuSans-32"/>
       <use xlink:href="#DejaVuSans-35" x="63.623047"/>
       <use xlink:href="#DejaVuSans-30" x="127.246094"/>
      </g>
     </g>
    </g>
   </g>
   <g id="patch_210">
    <path d="M 57.6 307.584 
L 57.6 41.472 
" style="fill: none; stroke: #000000; stroke-width: 0.8; stroke-linejoin: miter; stroke-linecap: square"/>
   </g>
   <g id="patch_211">
    <path d="M 414.72 307.584 
L 414.72 41.472 
" style="fill: none; stroke: #000000; stroke-width: 0.8; stroke-linejoin: miter; stroke-linecap: square"/>
   </g>
   <g id="patch_212">
    <path d="M 57.6 307.584 
L 414.72 307.584 
" style="fill: none; stroke: #000000; stroke-width: 0.8; stroke-linejoin: miter; stroke-linecap: square"/>
   </g>
   <g id="patch_213">
    <path d="M 57.6 41.472 
L 414.72 41.472 
" style="fill: none; stroke: #000000; stroke-width: 0.8; stroke-linejoin: miter; stroke-linecap: square"/>
   </g>
   <g id="legend_1">
    <g id="patch_214">
     <path d="M 433.632313 181.575125 
L 532.712 181.575125 
Q 534.712 181.575125 534.712 179.575125 
L 534.712 48.472 
Q 534.712 46.472 532.712 46.472 
L 433.632313 46.472 
Q 431.632313 46.472 431.632313 48.472 
L 431.632313 179.575125 
Q 431.632313 181.575125 433.632313 181.575125 
z
" style="fill: #ffffff; opacity: 0.8; stroke: #cccccc; stroke-linejoin: miter"/>
    </g>
    <g id="patch_215">
     <path d="M 435.632313 58.070438 
L 455.632313 58.070438 
L 455.632313 51.070438 
L 435.632313 51.070438 
z
" style="fill: #1f77b4"/>
    </g>
    <g id="text_31">
     <!-- BDP -->
     <g transform="translate(463.632313 58.070438) scale(0.1 -0.1)">
      <defs>
       <path id="DejaVuSans-42" d="M 1259 2228 
L 1259 519 
L 2272 519 
Q 2781 519 3026 730 
Q 3272 941 3272 1375 
Q 3272 1813 3026 2020 
Q 2781 2228 2272 2228 
L 1259 2228 
z
M 1259 4147 
L 1259 2741 
L 2194 2741 
Q 2656 2741 2882 2914 
Q 3109 3088 3109 3444 
Q 3109 3797 2882 3972 
Q 2656 4147 2194 4147 
L 1259 4147 
z
M 628 4666 
L 2241 4666 
Q 2963 4666 3353 4366 
Q 3744 4066 3744 3513 
Q 3744 3084 3544 2831 
Q 3344 2578 2956 2516 
Q 3422 2416 3680 2098 
Q 3938 1781 3938 1306 
Q 3938 681 3513 340 
Q 3088 0 2303 0 
L 628 0 
L 628 4666 
z
" transform="scale(0.015625)"/>
       <path id="DejaVuSans-44" d="M 1259 4147 
L 1259 519 
L 2022 519 
Q 2988 519 3436 956 
Q 3884 1394 3884 2338 
Q 3884 3275 3436 3711 
Q 2988 4147 2022 4147 
L 1259 4147 
z
M 628 4666 
L 1925 4666 
Q 3281 4666 3915 4102 
Q 4550 3538 4550 2338 
Q 4550 1131 3912 565 
Q 3275 0 1925 0 
L 628 0 
L 628 4666 
z
" transform="scale(0.015625)"/>
       <path id="DejaVuSans-50" d="M 1259 4147 
L 1259 2394 
L 2053 2394 
Q 2494 2394 2734 2622 
Q 2975 2850 2975 3272 
Q 2975 3691 2734 3919 
Q 2494 4147 2053 4147 
L 1259 4147 
z
M 628 4666 
L 2053 4666 
Q 2838 4666 3239 4311 
Q 3641 3956 3641 3272 
Q 3641 2581 3239 2228 
Q 2838 1875 2053 1875 
L 1259 1875 
L 1259 0 
L 628 0 
L 628 4666 
z
" transform="scale(0.015625)"/>
      </defs>
      <use xlink:href="#DejaVuSans-42"/>
      <use xlink:href="#DejaVuSans-44" x="68.603516"/>
      <use xlink:href="#DejaVuSans-50" x="145.605469"/>
     </g>
    </g>
    <g id="patch_216">
     <path d="M 435.632313 72.748563 
L 455.632313 72.748563 
L 455.632313 65.748563 
L 435.632313 65.748563 
z
" style="fill: #ff7f0e"/>
    </g>
    <g id="text_32">
     <!-- EVP -->
     <g transform="translate(463.632313 72.748563) scale(0.1 -0.1)">
      <defs>
       <path id="DejaVuSans-45" d="M 628 4666 
L 3578 4666 
L 3578 4134 
L 1259 4134 
L 1259 2753 
L 3481 2753 
L 3481 2222 
L 1259 2222 
L 1259 531 
L 3634 531 
L 3634 0 
L 628 0 
L 628 4666 
z
" transform="scale(0.015625)"/>
       <path id="DejaVuSans-56" d="M 1831 0 
L 50 4666 
L 709 4666 
L 2188 738 
L 3669 4666 
L 4325 4666 
L 2547 0 
L 1831 0 
z
" transform="scale(0.015625)"/>
      </defs>
      <use xlink:href="#DejaVuSans-45"/>
      <use xlink:href="#DejaVuSans-56" x="63.183594"/>
      <use xlink:href="#DejaVuSans-50" x="131.591797"/>
     </g>
    </g>
    <g id="patch_217">
     <path d="M 435.632313 87.426688 
L 455.632313 87.426688 
L 455.632313 80.426688 
L 435.632313 80.426688 
z
" style="fill: #2ca02c"/>
    </g>
    <g id="text_33">
     <!-- FDP -->
     <g transform="translate(463.632313 87.426688) scale(0.1 -0.1)">
      <defs>
       <path id="DejaVuSans-46" d="M 628 4666 
L 3309 4666 
L 3309 4134 
L 1259 4134 
L 1259 2759 
L 3109 2759 
L 3109 2228 
L 1259 2228 
L 1259 0 
L 628 0 
L 628 4666 
z
" transform="scale(0.015625)"/>
      </defs>
      <use xlink:href="#DejaVuSans-46"/>
      <use xlink:href="#DejaVuSans-44" x="57.519531"/>
      <use xlink:href="#DejaVuSans-50" x="134.521484"/>
     </g>
    </g>
    <g id="patch_218">
     <path d="M 435.632313 102.104813 
L 455.632313 102.104813 
L 455.632313 95.104813 
L 435.632313 95.104813 
z
" style="fill: #d62728"/>
    </g>
    <g id="text_34">
     <!-- Grne -->
     <g transform="translate(463.632313 102.104813) scale(0.1 -0.1)">
      <defs>
       <path id="DejaVuSans-47" d="M 3809 666 
L 3809 1919 
L 2778 1919 
L 2778 2438 
L 4434 2438 
L 4434 434 
Q 4069 175 3628 42 
Q 3188 -91 2688 -91 
Q 1594 -91 976 548 
Q 359 1188 359 2328 
Q 359 3472 976 4111 
Q 1594 4750 2688 4750 
Q 3144 4750 3555 4637 
Q 3966 4525 4313 4306 
L 4313 3634 
Q 3963 3931 3569 4081 
Q 3175 4231 2741 4231 
Q 1884 4231 1454 3753 
Q 1025 3275 1025 2328 
Q 1025 1384 1454 906 
Q 1884 428 2741 428 
Q 3075 428 3337 486 
Q 3600 544 3809 666 
z
" transform="scale(0.015625)"/>
       <path id="DejaVuSans-72" d="M 2631 2963 
Q 2534 3019 2420 3045 
Q 2306 3072 2169 3072 
Q 1681 3072 1420 2755 
Q 1159 2438 1159 1844 
L 1159 0 
L 581 0 
L 581 3500 
L 1159 3500 
L 1159 2956 
Q 1341 3275 1631 3429 
Q 1922 3584 2338 3584 
Q 2397 3584 2469 3576 
Q 2541 3569 2628 3553 
L 2631 2963 
z
" transform="scale(0.015625)"/>
       <path id="DejaVuSans-fc" d="M 544 1381 
L 544 3500 
L 1119 3500 
L 1119 1403 
Q 1119 906 1312 657 
Q 1506 409 1894 409 
Q 2359 409 2629 706 
Q 2900 1003 2900 1516 
L 2900 3500 
L 3475 3500 
L 3475 0 
L 2900 0 
L 2900 538 
Q 2691 219 2414 64 
Q 2138 -91 1772 -91 
Q 1169 -91 856 284 
Q 544 659 544 1381 
z
M 1991 3584 
L 1991 3584 
z
M 2278 4850 
L 2913 4850 
L 2913 4219 
L 2278 4219 
L 2278 4850 
z
M 1056 4850 
L 1691 4850 
L 1691 4219 
L 1056 4219 
L 1056 4850 
z
" transform="scale(0.015625)"/>
       <path id="DejaVuSans-65" d="M 3597 1894 
L 3597 1613 
L 953 1613 
Q 991 1019 1311 708 
Q 1631 397 2203 397 
Q 2534 397 2845 478 
Q 3156 559 3463 722 
L 3463 178 
Q 3153 47 2828 -22 
Q 2503 -91 2169 -91 
Q 1331 -91 842 396 
Q 353 884 353 1716 
Q 353 2575 817 3079 
Q 1281 3584 2069 3584 
Q 2775 3584 3186 3129 
Q 3597 2675 3597 1894 
z
M 3022 2063 
Q 3016 2534 2758 2815 
Q 2500 3097 2075 3097 
Q 1594 3097 1305 2825 
Q 1016 2553 972 2059 
L 3022 2063 
z
" transform="scale(0.015625)"/>
      </defs>
      <use xlink:href="#DejaVuSans-47"/>
      <use xlink:href="#DejaVuSans-72" x="77.490234"/>
      <use xlink:href="#DejaVuSans-fc" x="118.603516"/>
      <use xlink:href="#DejaVuSans-6e" x="181.982422"/>
      <use xlink:href="#DejaVuSans-65" x="245.361328"/>
     </g>
    </g>
    <g id="patch_219">
     <path d="M 435.632313 116.782938 
L 455.632313 116.782938 
L 455.632313 109.782938 
L 435.632313 109.782938 
z
" style="fill: #9467bd"/>
    </g>
    <g id="text_35">
     <!-- Parteilos -->
     <g transform="translate(463.632313 116.782938) scale(0.1 -0.1)">
      <defs>
       <path id="DejaVuSans-6c" d="M 603 4863 
L 1178 4863 
L 1178 0 
L 603 0 
L 603 4863 
z
" transform="scale(0.015625)"/>
       <path id="DejaVuSans-6f" d="M 1959 3097 
Q 1497 3097 1228 2736 
Q 959 2375 959 1747 
Q 959 1119 1226 758 
Q 1494 397 1959 397 
Q 2419 397 2687 759 
Q 2956 1122 2956 1747 
Q 2956 2369 2687 2733 
Q 2419 3097 1959 3097 
z
M 1959 3584 
Q 2709 3584 3137 3096 
Q 3566 2609 3566 1747 
Q 3566 888 3137 398 
Q 2709 -91 1959 -91 
Q 1206 -91 779 398 
Q 353 888 353 1747 
Q 353 2609 779 3096 
Q 1206 3584 1959 3584 
z
" transform="scale(0.015625)"/>
      </defs>
      <use xlink:href="#DejaVuSans-50"/>
      <use xlink:href="#DejaVuSans-61" x="55.802734"/>
      <use xlink:href="#DejaVuSans-72" x="117.082031"/>
      <use xlink:href="#DejaVuSans-74" x="158.195312"/>
      <use xlink:href="#DejaVuSans-65" x="197.404297"/>
      <use xlink:href="#DejaVuSans-69" x="258.927734"/>
      <use xlink:href="#DejaVuSans-6c" x="286.710938"/>
      <use xlink:href="#DejaVuSans-6f" x="314.494141"/>
      <use xlink:href="#DejaVuSans-73" x="375.675781"/>
     </g>
    </g>
    <g id="patch_220">
     <path d="M 435.632313 131.461063 
L 455.632313 131.461063 
L 455.632313 124.461063 
L 435.632313 124.461063 
z
" style="fill: #8c564b"/>
    </g>
    <g id="text_36">
     <!-- SP -->
     <g transform="translate(463.632313 131.461063) scale(0.1 -0.1)">
      <use xlink:href="#DejaVuSans-53"/>
      <use xlink:href="#DejaVuSans-50" x="63.476562"/>
     </g>
    </g>
    <g id="patch_221">
     <path d="M 435.632313 146.139188 
L 455.632313 146.139188 
L 455.632313 139.139188 
L 435.632313 139.139188 
z
" style="fill: #e377c2"/>
    </g>
    <g id="text_37">
     <!-- SVP -->
     <g transform="translate(463.632313 146.139188) scale(0.1 -0.1)">
      <use xlink:href="#DejaVuSans-53"/>
      <use xlink:href="#DejaVuSans-56" x="63.476562"/>
      <use xlink:href="#DejaVuSans-50" x="131.884766"/>
     </g>
    </g>
    <g id="patch_222">
     <path d="M 435.632313 160.817313 
L 455.632313 160.817313 
L 455.632313 153.817313 
L 435.632313 153.817313 
z
" style="fill: #7f7f7f"/>
    </g>
    <g id="text_38">
     <!-- glp -->
     <g transform="translate(463.632313 160.817313) scale(0.1 -0.1)">
      <defs>
       <path id="DejaVuSans-70" d="M 1159 525 
L 1159 -1331 
L 581 -1331 
L 581 3500 
L 1159 3500 
L 1159 2969 
Q 1341 3281 1617 3432 
Q 1894 3584 2278 3584 
Q 2916 3584 3314 3078 
Q 3713 2572 3713 1747 
Q 3713 922 3314 415 
Q 2916 -91 2278 -91 
Q 1894 -91 1617 61 
Q 1341 213 1159 525 
z
M 3116 1747 
Q 3116 2381 2855 2742 
Q 2594 3103 2138 3103 
Q 1681 3103 1420 2742 
Q 1159 2381 1159 1747 
Q 1159 1113 1420 752 
Q 1681 391 2138 391 
Q 2594 391 2855 752 
Q 3116 1113 3116 1747 
z
" transform="scale(0.015625)"/>
      </defs>
      <use xlink:href="#DejaVuSans-67"/>
      <use xlink:href="#DejaVuSans-6c" x="63.476562"/>
      <use xlink:href="#DejaVuSans-70" x="91.259766"/>
     </g>
    </g>
    <g id="patch_223">
     <path d="M 435.632313 175.495438 
L 455.632313 175.495438 
L 455.632313 168.495438 
L 435.632313 168.495438 
z
" style="fill: #bcbd22"/>
    </g>
    <g id="text_39">
     <!-- CVP/die Mitte -->
     <g transform="translate(463.632313 175.495438) scale(0.1 -0.1)">
      <defs>
       <path id="DejaVuSans-43" d="M 4122 4306 
L 4122 3641 
Q 3803 3938 3442 4084 
Q 3081 4231 2675 4231 
Q 1875 4231 1450 3742 
Q 1025 3253 1025 2328 
Q 1025 1406 1450 917 
Q 1875 428 2675 428 
Q 3081 428 3442 575 
Q 3803 722 4122 1019 
L 4122 359 
Q 3791 134 3420 21 
Q 3050 -91 2638 -91 
Q 1578 -91 968 557 
Q 359 1206 359 2328 
Q 359 3453 968 4101 
Q 1578 4750 2638 4750 
Q 3056 4750 3426 4639 
Q 3797 4528 4122 4306 
z
" transform="scale(0.015625)"/>
       <path id="DejaVuSans-2f" d="M 1625 4666 
L 2156 4666 
L 531 -594 
L 0 -594 
L 1625 4666 
z
" transform="scale(0.015625)"/>
       <path id="DejaVuSans-20" transform="scale(0.015625)"/>
       <path id="DejaVuSans-4d" d="M 628 4666 
L 1569 4666 
L 2759 1491 
L 3956 4666 
L 4897 4666 
L 4897 0 
L 4281 0 
L 4281 4097 
L 3078 897 
L 2444 897 
L 1241 4097 
L 1241 0 
L 628 0 
L 628 4666 
z
" transform="scale(0.015625)"/>
      </defs>
      <use xlink:href="#DejaVuSans-43"/>
      <use xlink:href="#DejaVuSans-56" x="69.824219"/>
      <use xlink:href="#DejaVuSans-50" x="138.232422"/>
      <use xlink:href="#DejaVuSans-2f" x="198.535156"/>
      <use xlink:href="#DejaVuSans-64" x="232.226562"/>
      <use xlink:href="#DejaVuSans-69" x="295.703125"/>
      <use xlink:href="#DejaVuSans-65" x="323.486328"/>
      <use xlink:href="#DejaVuSans-20" x="385.009766"/>
      <use xlink:href="#DejaVuSans-4d" x="416.796875"/>
      <use xlink:href="#DejaVuSans-69" x="503.076172"/>
      <use xlink:href="#DejaVuSans-74" x="530.859375"/>
      <use xlink:href="#DejaVuSans-74" x="570.068359"/>
      <use xlink:href="#DejaVuSans-65" x="609.277344"/>
     </g>
    </g>
   </g>
  </g>
 </g>
 <defs>
  <clipPath id="p766132f26c">
   <rect x="57.6" y="41.472" width="357.12" height="266.112"/>
  </clipPath>
 </defs>
</svg>
