<?xml version="1.0" encoding="utf-8" standalone="no"?>
<!DOCTYPE svg PUBLIC "-//W3C//DTD SVG 1.1//EN"
  "http://www.w3.org/Graphics/SVG/1.1/DTD/svg11.dtd">
<svg xmlns:xlink="http://www.w3.org/1999/xlink" width="460.8pt" height="345.6pt" viewBox="0 0 460.8 345.6" xmlns="http://www.w3.org/2000/svg" version="1.1">
 <metadata>
  <rdf:RDF xmlns:dc="http://purl.org/dc/elements/1.1/" xmlns:cc="http://creativecommons.org/ns#" xmlns:rdf="http://www.w3.org/1999/02/22-rdf-syntax-ns#">
   <cc:Work>
    <dc:type rdf:resource="http://purl.org/dc/dcmitype/StillImage"/>
    <dc:date>2023-12-02T23:37:15.827332</dc:date>
    <dc:format>image/svg+xml</dc:format>
    <dc:creator>
     <cc:Agent>
      <dc:title>Matplotlib v3.8.2, https://matplotlib.org/</dc:title>
     </cc:Agent>
    </dc:creator>
   </cc:Work>
  </rdf:RDF>
 </metadata>
 <defs>
  <style type="text/css">*{stroke-linejoin: round; stroke-linecap: butt}</style>
 </defs>
 <g id="figure_1">
  <g id="patch_1">
   <path d="M 0 345.6 
L 460.8 345.6 
L 460.8 0 
L 0 0 
L 0 345.6 
z
" style="fill: none"/>
  </g>
  <g id="axes_1">
   <g id="patch_2">
    <path d="M 57.6 307.584 
L 414.72 307.584 
L 414.72 41.472 
L 57.6 41.472 
L 57.6 307.584 
z
" style="fill: none"/>
   </g>
   <g id="PolyCollection_1">
    <path d="M 73.832727 295.488 
L 73.832727 295.488 
L 74.920347 295.488 
L 76.007967 295.488 
L 76.823682 295.488 
L 76.823682 295.488 
L 76.823682 295.488 
L 76.007967 295.488 
L 74.920347 295.488 
L 73.832727 295.488 
z
" clip-path="url(#p2bc89a9063)" style="fill: #1f77b4; fill-opacity: 0.2; stroke: #1f77b4; stroke-opacity: 0.2"/>
    <path d="M 79.542732 295.488 
L 79.542732 295.488 
L 79.814637 295.488 
L 82.533687 295.488 
L 83.349402 295.488 
L 84.980831 295.488 
L 85.796546 295.488 
L 86.068451 295.488 
L 87.971786 295.488 
L 89.603216 295.488 
L 90.418931 295.488 
L 90.690836 295.488 
L 91.778456 295.488 
L 92.866076 295.488 
L 93.681791 295.488 
L 93.953696 295.488 
L 96.672746 295.488 
L 97.48846 295.488 
L 97.760365 295.488 
L 99.11989 295.488 
L 99.935605 295.488 
L 100.20751 295.488 
L 102.110845 295.488 
L 103.742275 295.488 
L 104.55799 295.488 
L 104.829895 295.488 
L 106.18942 295.488 
L 107.27704 295.488 
L 108.092755 295.488 
L 108.36466 295.488 
L 110.811804 295.488 
L 111.627519 295.488 
L 111.899424 295.488 
L 113.258949 295.488 
L 114.074664 295.488 
L 114.346569 295.488 
L 114.890379 295.488 
L 116.249904 295.488 
L 117.609429 295.488 
L 118.697049 295.488 
L 118.968954 295.488 
L 120.328479 295.488 
L 121.144194 295.488 
L 122.231814 295.488 
L 124.950863 295.488 
L 125.766578 295.488 
L 126.038483 295.488 
L 127.398008 295.488 
L 128.213723 295.488 
L 128.485628 295.488 
L 130.660868 295.488 
L 131.748488 295.488 
L 132.836108 295.488 
L 134.467538 295.488 
L 135.555158 295.488 
L 136.370873 295.488 
L 136.914683 295.488 
L 136.914683 295.488 
L 136.914683 295.488 
L 136.370873 295.488 
L 135.555158 295.488 
L 134.467538 295.488 
L 132.836108 295.488 
L 131.748488 295.488 
L 130.660868 295.488 
L 128.485628 295.488 
L 128.213723 295.488 
L 127.398008 295.488 
L 126.038483 295.488 
L 125.766578 295.488 
L 124.950863 295.488 
L 122.231814 295.488 
L 121.144194 295.488 
L 120.328479 295.488 
L 118.968954 295.488 
L 118.697049 295.488 
L 117.609429 295.488 
L 116.249904 295.488 
L 114.890379 295.488 
L 114.346569 295.488 
L 114.074664 295.488 
L 113.258949 295.488 
L 111.899424 295.488 
L 111.627519 295.488 
L 110.811804 295.488 
L 108.36466 295.488 
L 108.092755 295.488 
L 107.27704 295.488 
L 106.18942 295.488 
L 104.829895 295.488 
L 104.55799 295.488 
L 103.742275 295.488 
L 102.110845 295.488 
L 100.20751 295.488 
L 99.935605 295.488 
L 99.11989 295.488 
L 97.760365 295.488 
L 97.48846 295.488 
L 96.672746 295.488 
L 93.953696 295.488 
L 93.681791 295.488 
L 92.866076 295.488 
L 91.778456 295.488 
L 90.690836 295.488 
L 90.418931 295.488 
L 89.603216 295.488 
L 87.971786 295.488 
L 86.068451 295.488 
L 85.796546 295.488 
L 84.980831 295.488 
L 83.349402 295.488 
L 82.533687 295.488 
L 79.814637 295.488 
L 79.542732 295.488 
z
" clip-path="url(#p2bc89a9063)" style="fill: #1f77b4; fill-opacity: 0.2; stroke: #1f77b4; stroke-opacity: 0.2"/>
    <path d="M 139.361827 295.488 
L 139.361827 295.488 
L 140.177542 295.488 
L 140.449447 295.488 
L 141.847816 295.488 
L 142.352782 295.488 
L 142.624687 295.488 
L 144.799927 295.488 
L 145.887547 295.488 
L 147.247072 295.488 
L 148.878502 295.488 
L 149.694217 295.488 
L 150.509931 295.488 
L 151.053741 295.488 
L 153.500886 295.488 
L 154.316601 295.488 
L 154.588506 295.488 
L 155.948031 295.488 
L 156.763746 295.488 
L 157.035651 295.488 
L 158.938986 295.488 
L 160.026606 295.488 
L 161.386131 295.488 
L 161.658036 295.488 
L 163.056404 295.488 
L 163.833275 295.488 
L 164.64899 295.488 
L 165.1928 295.488 
L 167.639945 295.488 
L 168.45566 295.488 
L 168.727565 295.488 
L 170.08709 295.488 
L 170.902805 295.488 
L 173.34995 295.488 
L 174.43757 295.488 
L 175.253285 295.488 
L 175.52519 295.488 
L 175.52519 295.488 
L 175.52519 295.488 
L 175.253285 295.488 
L 174.43757 295.488 
L 173.34995 295.488 
L 170.902805 295.488 
L 170.08709 295.488 
L 168.727565 295.488 
L 168.45566 295.488 
L 167.639945 295.488 
L 165.1928 295.488 
L 164.64899 295.488 
L 163.833275 295.488 
L 163.056404 295.488 
L 161.658036 295.488 
L 161.386131 295.488 
L 160.026606 295.488 
L 158.938986 295.488 
L 157.035651 295.488 
L 156.763746 295.488 
L 155.948031 295.488 
L 154.588506 295.488 
L 154.316601 295.488 
L 153.500886 295.488 
L 151.053741 295.488 
L 150.509931 295.488 
L 149.694217 295.488 
L 148.878502 295.488 
L 147.247072 295.488 
L 145.887547 295.488 
L 144.799927 295.488 
L 142.624687 295.488 
L 142.352782 295.488 
L 141.847816 295.488 
L 140.449447 295.488 
L 140.177542 295.488 
L 139.361827 295.488 
z
" clip-path="url(#p2bc89a9063)" style="fill: #1f77b4; fill-opacity: 0.2; stroke: #1f77b4; stroke-opacity: 0.2"/>
    <path d="M 177.972334 295.488 
L 177.972334 295.488 
L 178.788049 295.488 
L 179.059954 295.488 
L 181.779004 295.488 
L 182.866624 295.488 
L 184.226149 295.488 
L 184.226149 295.488 
L 184.226149 295.488 
L 182.866624 295.488 
L 181.779004 295.488 
L 179.059954 295.488 
L 178.788049 295.488 
L 177.972334 295.488 
z
" clip-path="url(#p2bc89a9063)" style="fill: #1f77b4; fill-opacity: 0.2; stroke: #1f77b4; stroke-opacity: 0.2"/>
    <path d="M 185.313769 295.488 
L 185.313769 295.488 
L 185.857579 295.488 
L 187.217104 295.488 
L 188.576629 295.488 
L 189.392344 295.488 
L 192.111393 295.488 
L 192.927108 295.488 
L 192.927108 295.488 
L 192.927108 295.488 
L 192.111393 295.488 
L 189.392344 295.488 
L 188.576629 295.488 
L 187.217104 295.488 
L 185.857579 295.488 
L 185.313769 295.488 
z
" clip-path="url(#p2bc89a9063)" style="fill: #1f77b4; fill-opacity: 0.2; stroke: #1f77b4; stroke-opacity: 0.2"/>
    <path d="M 195.918063 295.488 
L 195.918063 295.488 
L 196.733778 295.488 
L 198.365208 295.488 
L 199.180923 295.488 
L 201.628068 295.488 
L 202.715688 295.488 
L 202.715688 295.488 
L 202.715688 295.488 
L 201.628068 295.488 
L 199.180923 295.488 
L 198.365208 295.488 
L 196.733778 295.488 
L 195.918063 295.488 
z
" clip-path="url(#p2bc89a9063)" style="fill: #1f77b4; fill-opacity: 0.2; stroke: #1f77b4; stroke-opacity: 0.2"/>
    <path d="M 205.434737 295.488 
L 205.434737 295.488 
L 206.250452 295.488 
L 207.338072 295.488 
L 207.338072 295.488 
L 207.338072 295.488 
L 206.250452 295.488 
L 205.434737 295.488 
z
" clip-path="url(#p2bc89a9063)" style="fill: #1f77b4; fill-opacity: 0.2; stroke: #1f77b4; stroke-opacity: 0.2"/>
    <path d="M 210.057122 295.488 
L 210.057122 295.488 
L 210.872837 295.488 
L 212.504267 295.488 
L 212.504267 295.488 
L 212.504267 295.488 
L 210.872837 295.488 
L 210.057122 295.488 
z
" clip-path="url(#p2bc89a9063)" style="fill: #1f77b4; fill-opacity: 0.2; stroke: #1f77b4; stroke-opacity: 0.2"/>
    <path d="M 213.591887 295.488 
L 213.591887 295.488 
L 214.135697 295.488 
L 215.767127 295.488 
L 217.126651 295.488 
L 217.942366 295.488 
L 219.845701 295.488 
L 220.661416 295.488 
L 221.477131 295.488 
L 222.292846 295.488 
L 224.468086 295.488 
L 225.555706 295.488 
L 226.954074 295.488 
L 228.546661 295.488 
L 229.906185 295.488 
L 231.26571 295.488 
L 232.081425 295.488 
L 232.081425 295.488 
L 232.081425 295.488 
L 231.26571 295.488 
L 229.906185 295.488 
L 228.546661 295.488 
L 226.954074 295.488 
L 225.555706 295.488 
L 224.468086 295.488 
L 222.292846 295.488 
L 221.477131 295.488 
L 220.661416 295.488 
L 219.845701 295.488 
L 217.942366 295.488 
L 217.126651 295.488 
L 215.767127 295.488 
L 214.135697 295.488 
L 213.591887 295.488 
z
" clip-path="url(#p2bc89a9063)" style="fill: #1f77b4; fill-opacity: 0.2; stroke: #1f77b4; stroke-opacity: 0.2"/>
    <path d="M 235.61619 295.488 
L 235.61619 295.488 
L 236.431905 295.488 
L 238.607145 295.488 
L 238.607145 295.488 
L 238.607145 295.488 
L 236.431905 295.488 
L 235.61619 295.488 
z
" clip-path="url(#p2bc89a9063)" style="fill: #1f77b4; fill-opacity: 0.2; stroke: #1f77b4; stroke-opacity: 0.2"/>
    <path d="M 241.326195 295.488 
L 241.326195 295.488 
L 242.14191 295.488 
L 242.14191 295.488 
L 242.14191 295.488 
L 241.326195 295.488 
z
" clip-path="url(#p2bc89a9063)" style="fill: #1f77b4; fill-opacity: 0.2; stroke: #1f77b4; stroke-opacity: 0.2"/>
    <path d="M 244.045244 295.488 
L 244.045244 295.488 
L 245.132864 295.488 
L 245.132864 295.488 
L 245.132864 295.488 
L 244.045244 295.488 
z
" clip-path="url(#p2bc89a9063)" style="fill: #1f77b4; fill-opacity: 0.2; stroke: #1f77b4; stroke-opacity: 0.2"/>
    <path d="M 248.123819 295.488 
L 248.123819 295.488 
L 248.939534 295.488 
L 249.755249 295.488 
L 250.570964 295.488 
L 252.746204 295.488 
L 253.833824 295.488 
L 255.193349 295.488 
L 256.824778 295.488 
L 258.184303 295.488 
L 259.271923 295.488 
L 260.359543 295.488 
L 261.175258 295.488 
L 262.534783 295.488 
L 263.894308 295.488 
L 266.885263 295.488 
L 267.972883 295.488 
L 269.060503 295.488 
L 269.332407 295.488 
L 270.148122 295.488 
L 270.148122 295.488 
L 270.148122 295.488 
L 269.332407 295.488 
L 269.060503 295.488 
L 267.972883 295.488 
L 266.885263 295.488 
L 263.894308 295.488 
L 262.534783 295.488 
L 261.175258 295.488 
L 260.359543 295.488 
L 259.271923 295.488 
L 258.184303 295.488 
L 256.824778 295.488 
L 255.193349 295.488 
L 253.833824 295.488 
L 252.746204 295.488 
L 250.570964 295.488 
L 249.755249 295.488 
L 248.939534 295.488 
L 248.123819 295.488 
z
" clip-path="url(#p2bc89a9063)" style="fill: #1f77b4; fill-opacity: 0.2; stroke: #1f77b4; stroke-opacity: 0.2"/>
    <path d="M 272.323362 295.488 
L 272.323362 295.488 
L 273.954792 295.488 
L 275.042412 295.488 
L 276.401937 295.488 
L 277.217652 295.488 
L 281.024322 295.488 
L 281.840037 295.488 
L 281.840037 295.488 
L 281.840037 295.488 
L 281.024322 295.488 
L 277.217652 295.488 
L 276.401937 295.488 
L 275.042412 295.488 
L 273.954792 295.488 
L 272.323362 295.488 
z
" clip-path="url(#p2bc89a9063)" style="fill: #1f77b4; fill-opacity: 0.2; stroke: #1f77b4; stroke-opacity: 0.2"/>
    <path d="M 283.471466 295.488 
L 283.471466 295.488 
L 284.287181 295.488 
L 284.559086 295.488 
L 284.559086 295.488 
L 284.559086 295.488 
L 284.287181 295.488 
L 283.471466 295.488 
z
" clip-path="url(#p2bc89a9063)" style="fill: #1f77b4; fill-opacity: 0.2; stroke: #1f77b4; stroke-opacity: 0.2"/>
    <path d="M 286.462421 295.488 
L 286.462421 295.488 
L 288.093851 295.488 
L 289.181471 295.488 
L 290.812901 295.488 
L 291.628616 295.488 
L 292.716236 295.488 
L 292.988141 295.488 
L 293.260046 295.488 
L 295.163381 295.488 
L 295.979095 295.488 
L 296.251 295.488 
L 296.251 295.488 
L 296.251 295.488 
L 295.979095 295.488 
L 295.163381 295.488 
L 293.260046 295.488 
L 292.988141 295.488 
L 292.716236 295.488 
L 291.628616 295.488 
L 290.812901 295.488 
L 289.181471 295.488 
L 288.093851 295.488 
L 286.462421 295.488 
z
" clip-path="url(#p2bc89a9063)" style="fill: #1f77b4; fill-opacity: 0.2; stroke: #1f77b4; stroke-opacity: 0.2"/>
    <path d="M 298.97005 295.488 
L 298.97005 295.488 
L 299.51386 295.488 
L 300.873385 295.488 
L 301.961005 295.488 
L 303.32053 295.488 
L 303.592435 295.488 
L 304.95196 295.488 
L 305.767675 295.488 
L 306.58339 295.488 
L 307.1272 295.488 
L 309.302439 295.488 
L 310.661964 295.488 
L 311.749584 295.488 
L 312.565299 295.488 
L 313.381014 295.488 
L 315.012444 295.488 
L 316.138908 295.488 
L 317.459589 295.488 
L 317.731494 295.488 
L 319.362924 295.488 
L 320.178639 295.488 
L 321.266259 295.488 
L 323.713403 295.488 
L 324.529118 295.488 
L 326.160548 295.488 
L 326.976263 295.488 
L 326.976263 295.488 
L 326.976263 295.488 
L 326.160548 295.488 
L 324.529118 295.488 
L 323.713403 295.488 
L 321.266259 295.488 
L 320.178639 295.488 
L 319.362924 295.488 
L 317.731494 295.488 
L 317.459589 295.488 
L 316.138908 295.488 
L 315.012444 295.488 
L 313.381014 295.488 
L 312.565299 295.488 
L 311.749584 295.488 
L 310.661964 295.488 
L 309.302439 295.488 
L 307.1272 295.488 
L 306.58339 295.488 
L 305.767675 295.488 
L 304.95196 295.488 
L 303.592435 295.488 
L 303.32053 295.488 
L 301.961005 295.488 
L 300.873385 295.488 
L 299.51386 295.488 
L 298.97005 295.488 
z
" clip-path="url(#p2bc89a9063)" style="fill: #1f77b4; fill-opacity: 0.2; stroke: #1f77b4; stroke-opacity: 0.2"/>
    <path d="M 329.151503 295.488 
L 329.151503 295.488 
L 330.782933 295.488 
L 331.598648 295.488 
L 333.230078 295.488 
L 334.045793 295.488 
L 334.861508 295.488 
L 335.405317 295.488 
L 337.852462 295.488 
L 338.940082 295.488 
L 340.299607 295.488 
L 341.115322 295.488 
L 341.659132 295.488 
L 341.931037 295.488 
L 343.290562 295.488 
L 344.921992 295.488 
L 346.009612 295.488 
L 347.369137 295.488 
L 348.184852 295.488 
L 349.272471 295.488 
L 349.816281 53.568 
L 351.991521 222.912 
L 353.079141 189.648 
L 354.438666 265.248 
L 355.526286 185.524364 
L 356.070096 295.488 
L 357.429621 157.248 
L 359.061051 198.72 
L 360.148671 271.296 
L 361.780101 214.848 
L 362.595815 255.168 
L 363.41153 174.528 
L 366.13058 214.848 
L 367.2182 174.528 
L 368.84963 139.968 
L 369.665345 174.528 
L 370.209155 295.488 
L 371.56868 255.168 
L 373.20011 295.488 
L 374.28773 295.488 
L 375.919159 295.488 
L 376.734874 295.488 
L 377.550589 295.488 
L 377.550589 224.335059 
L 377.550589 224.335059 
L 376.734874 247.104 
L 375.919159 239.660308 
L 374.28773 224.335059 
L 373.20011 198.72 
L 371.56868 93.888 
L 370.209155 53.568 
L 369.665345 53.568 
L 368.84963 53.568 
L 367.2182 70.848 
L 366.13058 85.824 
L 363.41153 53.568 
L 362.595815 93.888 
L 361.780101 53.568 
L 360.148671 126.144 
L 359.061051 101.952 
L 357.429621 53.568 
L 356.070096 295.488 
L 355.526286 53.568 
L 354.438666 83.808 
L 353.079141 83.808 
L 351.991521 77.76 
L 349.816281 53.568 
L 349.272471 229.509818 
L 348.184852 150.336 
L 347.369137 295.488 
L 346.009612 295.488 
L 344.921992 295.488 
L 343.290562 295.488 
L 341.931037 295.488 
L 341.659132 53.568 
L 341.115322 191.808 
L 340.299607 150.336 
L 338.940082 250.128 
L 337.852462 295.488 
L 335.405317 295.488 
L 334.861508 295.488 
L 334.045793 295.488 
L 333.230078 295.488 
L 331.598648 295.488 
L 330.782933 295.488 
L 329.151503 295.488 
z
" clip-path="url(#p2bc89a9063)" style="fill: #1f77b4; fill-opacity: 0.2; stroke: #1f77b4; stroke-opacity: 0.2"/>
    <path d="M 380.269639 295.488 
L 380.269639 295.488 
L 381.085354 295.488 
L 383.260594 295.488 
L 384.076309 295.488 
L 384.620119 295.488 
L 385.707739 295.488 
L 387.611074 295.488 
L 388.426788 295.488 
L 390.058218 295.488 
L 390.873933 295.488 
L 392.233458 295.488 
L 394.408698 295.488 
L 395.224413 295.488 
L 397.127748 295.488 
L 397.943463 295.488 
L 398.487273 295.488 
L 398.487273 53.568 
L 398.487273 53.568 
L 397.943463 134.208 
L 397.127748 250.128 
L 395.224413 150.336 
L 394.408698 150.336 
L 392.233458 209.088 
L 390.873933 150.336 
L 390.058218 295.488 
L 388.426788 295.488 
L 387.611074 239.660308 
L 385.707739 157.248 
L 384.620119 295.488 
L 384.076309 114.048 
L 383.260594 204.768 
L 381.085354 209.088 
L 380.269639 295.488 
z
" clip-path="url(#p2bc89a9063)" style="fill: #1f77b4; fill-opacity: 0.2; stroke: #1f77b4; stroke-opacity: 0.2"/>
   </g>
   <g id="matplotlib.axis_1">
    <g id="xtick_1">
     <g id="line2d_1">
      <defs>
       <path id="md335d68754" d="M 0 0 
L 0 3.5 
" style="stroke: #000000; stroke-width: 0.8"/>
      </defs>
      <g>
       <use xlink:href="#md335d68754" x="59.033328" y="307.584" style="stroke: #000000; stroke-width: 0.8"/>
      </g>
     </g>
     <g id="text_1">
      <!-- 2000 -->
      <g transform="translate(46.308328 322.182437) scale(0.1 -0.1)">
       <defs>
        <path id="DejaVuSans-32" d="M 1228 531 
L 3431 531 
L 3431 0 
L 469 0 
L 469 531 
Q 828 903 1448 1529 
Q 2069 2156 2228 2338 
Q 2531 2678 2651 2914 
Q 2772 3150 2772 3378 
Q 2772 3750 2511 3984 
Q 2250 4219 1831 4219 
Q 1534 4219 1204 4116 
Q 875 4013 500 3803 
L 500 4441 
Q 881 4594 1212 4672 
Q 1544 4750 1819 4750 
Q 2544 4750 2975 4387 
Q 3406 4025 3406 3419 
Q 3406 3131 3298 2873 
Q 3191 2616 2906 2266 
Q 2828 2175 2409 1742 
Q 1991 1309 1228 531 
z
" transform="scale(0.015625)"/>
        <path id="DejaVuSans-30" d="M 2034 4250 
Q 1547 4250 1301 3770 
Q 1056 3291 1056 2328 
Q 1056 1369 1301 889 
Q 1547 409 2034 409 
Q 2525 409 2770 889 
Q 3016 1369 3016 2328 
Q 3016 3291 2770 3770 
Q 2525 4250 2034 4250 
z
M 2034 4750 
Q 2819 4750 3233 4129 
Q 3647 3509 3647 2328 
Q 3647 1150 3233 529 
Q 2819 -91 2034 -91 
Q 1250 -91 836 529 
Q 422 1150 422 2328 
Q 422 3509 836 4129 
Q 1250 4750 2034 4750 
z
" transform="scale(0.015625)"/>
       </defs>
       <use xlink:href="#DejaVuSans-32"/>
       <use xlink:href="#DejaVuSans-30" x="63.623047"/>
       <use xlink:href="#DejaVuSans-30" x="127.246094"/>
       <use xlink:href="#DejaVuSans-30" x="190.869141"/>
      </g>
     </g>
    </g>
    <g id="xtick_2">
     <g id="line2d_2">
      <g>
       <use xlink:href="#md335d68754" x="115.783781" y="307.584" style="stroke: #000000; stroke-width: 0.8"/>
      </g>
     </g>
     <g id="text_2">
      <!-- 2004 -->
      <g transform="translate(103.058781 322.182437) scale(0.1 -0.1)">
       <defs>
        <path id="DejaVuSans-34" d="M 2419 4116 
L 825 1625 
L 2419 1625 
L 2419 4116 
z
M 2253 4666 
L 3047 4666 
L 3047 1625 
L 3713 1625 
L 3713 1100 
L 3047 1100 
L 3047 0 
L 2419 0 
L 2419 1100 
L 313 1100 
L 313 1709 
L 2253 4666 
z
" transform="scale(0.015625)"/>
       </defs>
       <use xlink:href="#DejaVuSans-32"/>
       <use xlink:href="#DejaVuSans-30" x="63.623047"/>
       <use xlink:href="#DejaVuSans-30" x="127.246094"/>
       <use xlink:href="#DejaVuSans-34" x="190.869141"/>
      </g>
     </g>
    </g>
    <g id="xtick_3">
     <g id="line2d_3">
      <g>
       <use xlink:href="#md335d68754" x="172.534235" y="307.584" style="stroke: #000000; stroke-width: 0.8"/>
      </g>
     </g>
     <g id="text_3">
      <!-- 2008 -->
      <g transform="translate(159.809235 322.182437) scale(0.1 -0.1)">
       <defs>
        <path id="DejaVuSans-38" d="M 2034 2216 
Q 1584 2216 1326 1975 
Q 1069 1734 1069 1313 
Q 1069 891 1326 650 
Q 1584 409 2034 409 
Q 2484 409 2743 651 
Q 3003 894 3003 1313 
Q 3003 1734 2745 1975 
Q 2488 2216 2034 2216 
z
M 1403 2484 
Q 997 2584 770 2862 
Q 544 3141 544 3541 
Q 544 4100 942 4425 
Q 1341 4750 2034 4750 
Q 2731 4750 3128 4425 
Q 3525 4100 3525 3541 
Q 3525 3141 3298 2862 
Q 3072 2584 2669 2484 
Q 3125 2378 3379 2068 
Q 3634 1759 3634 1313 
Q 3634 634 3220 271 
Q 2806 -91 2034 -91 
Q 1263 -91 848 271 
Q 434 634 434 1313 
Q 434 1759 690 2068 
Q 947 2378 1403 2484 
z
M 1172 3481 
Q 1172 3119 1398 2916 
Q 1625 2713 2034 2713 
Q 2441 2713 2670 2916 
Q 2900 3119 2900 3481 
Q 2900 3844 2670 4047 
Q 2441 4250 2034 4250 
Q 1625 4250 1398 4047 
Q 1172 3844 1172 3481 
z
" transform="scale(0.015625)"/>
       </defs>
       <use xlink:href="#DejaVuSans-32"/>
       <use xlink:href="#DejaVuSans-30" x="63.623047"/>
       <use xlink:href="#DejaVuSans-30" x="127.246094"/>
       <use xlink:href="#DejaVuSans-38" x="190.869141"/>
      </g>
     </g>
    </g>
    <g id="xtick_4">
     <g id="line2d_4">
      <g>
       <use xlink:href="#md335d68754" x="229.284688" y="307.584" style="stroke: #000000; stroke-width: 0.8"/>
      </g>
     </g>
     <g id="text_4">
      <!-- 2012 -->
      <g transform="translate(216.559688 322.182437) scale(0.1 -0.1)">
       <defs>
        <path id="DejaVuSans-31" d="M 794 531 
L 1825 531 
L 1825 4091 
L 703 3866 
L 703 4441 
L 1819 4666 
L 2450 4666 
L 2450 531 
L 3481 531 
L 3481 0 
L 794 0 
L 794 531 
z
" transform="scale(0.015625)"/>
       </defs>
       <use xlink:href="#DejaVuSans-32"/>
       <use xlink:href="#DejaVuSans-30" x="63.623047"/>
       <use xlink:href="#DejaVuSans-31" x="127.246094"/>
       <use xlink:href="#DejaVuSans-32" x="190.869141"/>
      </g>
     </g>
    </g>
    <g id="xtick_5">
     <g id="line2d_5">
      <g>
       <use xlink:href="#md335d68754" x="286.035142" y="307.584" style="stroke: #000000; stroke-width: 0.8"/>
      </g>
     </g>
     <g id="text_5">
      <!-- 2016 -->
      <g transform="translate(273.310142 322.182437) scale(0.1 -0.1)">
       <defs>
        <path id="DejaVuSans-36" d="M 2113 2584 
Q 1688 2584 1439 2293 
Q 1191 2003 1191 1497 
Q 1191 994 1439 701 
Q 1688 409 2113 409 
Q 2538 409 2786 701 
Q 3034 994 3034 1497 
Q 3034 2003 2786 2293 
Q 2538 2584 2113 2584 
z
M 3366 4563 
L 3366 3988 
Q 3128 4100 2886 4159 
Q 2644 4219 2406 4219 
Q 1781 4219 1451 3797 
Q 1122 3375 1075 2522 
Q 1259 2794 1537 2939 
Q 1816 3084 2150 3084 
Q 2853 3084 3261 2657 
Q 3669 2231 3669 1497 
Q 3669 778 3244 343 
Q 2819 -91 2113 -91 
Q 1303 -91 875 529 
Q 447 1150 447 2328 
Q 447 3434 972 4092 
Q 1497 4750 2381 4750 
Q 2619 4750 2861 4703 
Q 3103 4656 3366 4563 
z
" transform="scale(0.015625)"/>
       </defs>
       <use xlink:href="#DejaVuSans-32"/>
       <use xlink:href="#DejaVuSans-30" x="63.623047"/>
       <use xlink:href="#DejaVuSans-31" x="127.246094"/>
       <use xlink:href="#DejaVuSans-36" x="190.869141"/>
      </g>
     </g>
    </g>
    <g id="xtick_6">
     <g id="line2d_6">
      <g>
       <use xlink:href="#md335d68754" x="342.785596" y="307.584" style="stroke: #000000; stroke-width: 0.8"/>
      </g>
     </g>
     <g id="text_6">
      <!-- 2020 -->
      <g transform="translate(330.060596 322.182437) scale(0.1 -0.1)">
       <use xlink:href="#DejaVuSans-32"/>
       <use xlink:href="#DejaVuSans-30" x="63.623047"/>
       <use xlink:href="#DejaVuSans-32" x="127.246094"/>
       <use xlink:href="#DejaVuSans-30" x="190.869141"/>
      </g>
     </g>
    </g>
    <g id="xtick_7">
     <g id="line2d_7">
      <g>
       <use xlink:href="#md335d68754" x="399.536049" y="307.584" style="stroke: #000000; stroke-width: 0.8"/>
      </g>
     </g>
     <g id="text_7">
      <!-- 2024 -->
      <g transform="translate(386.811049 322.182437) scale(0.1 -0.1)">
       <use xlink:href="#DejaVuSans-32"/>
       <use xlink:href="#DejaVuSans-30" x="63.623047"/>
       <use xlink:href="#DejaVuSans-32" x="127.246094"/>
       <use xlink:href="#DejaVuSans-34" x="190.869141"/>
      </g>
     </g>
    </g>
    <g id="text_8">
     <!-- Sitzungsdatum -->
     <g transform="translate(198.658437 335.860562) scale(0.1 -0.1)">
      <defs>
       <path id="DejaVuSans-53" d="M 3425 4513 
L 3425 3897 
Q 3066 4069 2747 4153 
Q 2428 4238 2131 4238 
Q 1616 4238 1336 4038 
Q 1056 3838 1056 3469 
Q 1056 3159 1242 3001 
Q 1428 2844 1947 2747 
L 2328 2669 
Q 3034 2534 3370 2195 
Q 3706 1856 3706 1288 
Q 3706 609 3251 259 
Q 2797 -91 1919 -91 
Q 1588 -91 1214 -16 
Q 841 59 441 206 
L 441 856 
Q 825 641 1194 531 
Q 1563 422 1919 422 
Q 2459 422 2753 634 
Q 3047 847 3047 1241 
Q 3047 1584 2836 1778 
Q 2625 1972 2144 2069 
L 1759 2144 
Q 1053 2284 737 2584 
Q 422 2884 422 3419 
Q 422 4038 858 4394 
Q 1294 4750 2059 4750 
Q 2388 4750 2728 4690 
Q 3069 4631 3425 4513 
z
" transform="scale(0.015625)"/>
       <path id="DejaVuSans-69" d="M 603 3500 
L 1178 3500 
L 1178 0 
L 603 0 
L 603 3500 
z
M 603 4863 
L 1178 4863 
L 1178 4134 
L 603 4134 
L 603 4863 
z
" transform="scale(0.015625)"/>
       <path id="DejaVuSans-74" d="M 1172 4494 
L 1172 3500 
L 2356 3500 
L 2356 3053 
L 1172 3053 
L 1172 1153 
Q 1172 725 1289 603 
Q 1406 481 1766 481 
L 2356 481 
L 2356 0 
L 1766 0 
Q 1100 0 847 248 
Q 594 497 594 1153 
L 594 3053 
L 172 3053 
L 172 3500 
L 594 3500 
L 594 4494 
L 1172 4494 
z
" transform="scale(0.015625)"/>
       <path id="DejaVuSans-7a" d="M 353 3500 
L 3084 3500 
L 3084 2975 
L 922 459 
L 3084 459 
L 3084 0 
L 275 0 
L 275 525 
L 2438 3041 
L 353 3041 
L 353 3500 
z
" transform="scale(0.015625)"/>
       <path id="DejaVuSans-75" d="M 544 1381 
L 544 3500 
L 1119 3500 
L 1119 1403 
Q 1119 906 1312 657 
Q 1506 409 1894 409 
Q 2359 409 2629 706 
Q 2900 1003 2900 1516 
L 2900 3500 
L 3475 3500 
L 3475 0 
L 2900 0 
L 2900 538 
Q 2691 219 2414 64 
Q 2138 -91 1772 -91 
Q 1169 -91 856 284 
Q 544 659 544 1381 
z
M 1991 3584 
L 1991 3584 
z
" transform="scale(0.015625)"/>
       <path id="DejaVuSans-6e" d="M 3513 2113 
L 3513 0 
L 2938 0 
L 2938 2094 
Q 2938 2591 2744 2837 
Q 2550 3084 2163 3084 
Q 1697 3084 1428 2787 
Q 1159 2491 1159 1978 
L 1159 0 
L 581 0 
L 581 3500 
L 1159 3500 
L 1159 2956 
Q 1366 3272 1645 3428 
Q 1925 3584 2291 3584 
Q 2894 3584 3203 3211 
Q 3513 2838 3513 2113 
z
" transform="scale(0.015625)"/>
       <path id="DejaVuSans-67" d="M 2906 1791 
Q 2906 2416 2648 2759 
Q 2391 3103 1925 3103 
Q 1463 3103 1205 2759 
Q 947 2416 947 1791 
Q 947 1169 1205 825 
Q 1463 481 1925 481 
Q 2391 481 2648 825 
Q 2906 1169 2906 1791 
z
M 3481 434 
Q 3481 -459 3084 -895 
Q 2688 -1331 1869 -1331 
Q 1566 -1331 1297 -1286 
Q 1028 -1241 775 -1147 
L 775 -588 
Q 1028 -725 1275 -790 
Q 1522 -856 1778 -856 
Q 2344 -856 2625 -561 
Q 2906 -266 2906 331 
L 2906 616 
Q 2728 306 2450 153 
Q 2172 0 1784 0 
Q 1141 0 747 490 
Q 353 981 353 1791 
Q 353 2603 747 3093 
Q 1141 3584 1784 3584 
Q 2172 3584 2450 3431 
Q 2728 3278 2906 2969 
L 2906 3500 
L 3481 3500 
L 3481 434 
z
" transform="scale(0.015625)"/>
       <path id="DejaVuSans-73" d="M 2834 3397 
L 2834 2853 
Q 2591 2978 2328 3040 
Q 2066 3103 1784 3103 
Q 1356 3103 1142 2972 
Q 928 2841 928 2578 
Q 928 2378 1081 2264 
Q 1234 2150 1697 2047 
L 1894 2003 
Q 2506 1872 2764 1633 
Q 3022 1394 3022 966 
Q 3022 478 2636 193 
Q 2250 -91 1575 -91 
Q 1294 -91 989 -36 
Q 684 19 347 128 
L 347 722 
Q 666 556 975 473 
Q 1284 391 1588 391 
Q 1994 391 2212 530 
Q 2431 669 2431 922 
Q 2431 1156 2273 1281 
Q 2116 1406 1581 1522 
L 1381 1569 
Q 847 1681 609 1914 
Q 372 2147 372 2553 
Q 372 3047 722 3315 
Q 1072 3584 1716 3584 
Q 2034 3584 2315 3537 
Q 2597 3491 2834 3397 
z
" transform="scale(0.015625)"/>
       <path id="DejaVuSans-64" d="M 2906 2969 
L 2906 4863 
L 3481 4863 
L 3481 0 
L 2906 0 
L 2906 525 
Q 2725 213 2448 61 
Q 2172 -91 1784 -91 
Q 1150 -91 751 415 
Q 353 922 353 1747 
Q 353 2572 751 3078 
Q 1150 3584 1784 3584 
Q 2172 3584 2448 3432 
Q 2725 3281 2906 2969 
z
M 947 1747 
Q 947 1113 1208 752 
Q 1469 391 1925 391 
Q 2381 391 2643 752 
Q 2906 1113 2906 1747 
Q 2906 2381 2643 2742 
Q 2381 3103 1925 3103 
Q 1469 3103 1208 2742 
Q 947 2381 947 1747 
z
" transform="scale(0.015625)"/>
       <path id="DejaVuSans-61" d="M 2194 1759 
Q 1497 1759 1228 1600 
Q 959 1441 959 1056 
Q 959 750 1161 570 
Q 1363 391 1709 391 
Q 2188 391 2477 730 
Q 2766 1069 2766 1631 
L 2766 1759 
L 2194 1759 
z
M 3341 1997 
L 3341 0 
L 2766 0 
L 2766 531 
Q 2569 213 2275 61 
Q 1981 -91 1556 -91 
Q 1019 -91 701 211 
Q 384 513 384 1019 
Q 384 1609 779 1909 
Q 1175 2209 1959 2209 
L 2766 2209 
L 2766 2266 
Q 2766 2663 2505 2880 
Q 2244 3097 1772 3097 
Q 1472 3097 1187 3025 
Q 903 2953 641 2809 
L 641 3341 
Q 956 3463 1253 3523 
Q 1550 3584 1831 3584 
Q 2591 3584 2966 3190 
Q 3341 2797 3341 1997 
z
" transform="scale(0.015625)"/>
       <path id="DejaVuSans-6d" d="M 3328 2828 
Q 3544 3216 3844 3400 
Q 4144 3584 4550 3584 
Q 5097 3584 5394 3201 
Q 5691 2819 5691 2113 
L 5691 0 
L 5113 0 
L 5113 2094 
Q 5113 2597 4934 2840 
Q 4756 3084 4391 3084 
Q 3944 3084 3684 2787 
Q 3425 2491 3425 1978 
L 3425 0 
L 2847 0 
L 2847 2094 
Q 2847 2600 2669 2842 
Q 2491 3084 2119 3084 
Q 1678 3084 1418 2786 
Q 1159 2488 1159 1978 
L 1159 0 
L 581 0 
L 581 3500 
L 1159 3500 
L 1159 2956 
Q 1356 3278 1631 3431 
Q 1906 3584 2284 3584 
Q 2666 3584 2933 3390 
Q 3200 3197 3328 2828 
z
" transform="scale(0.015625)"/>
      </defs>
      <use xlink:href="#DejaVuSans-53"/>
      <use xlink:href="#DejaVuSans-69" x="63.476562"/>
      <use xlink:href="#DejaVuSans-74" x="91.259766"/>
      <use xlink:href="#DejaVuSans-7a" x="130.46875"/>
      <use xlink:href="#DejaVuSans-75" x="182.958984"/>
      <use xlink:href="#DejaVuSans-6e" x="246.337891"/>
      <use xlink:href="#DejaVuSans-67" x="309.716797"/>
      <use xlink:href="#DejaVuSans-73" x="373.193359"/>
      <use xlink:href="#DejaVuSans-64" x="425.292969"/>
      <use xlink:href="#DejaVuSans-61" x="488.769531"/>
      <use xlink:href="#DejaVuSans-74" x="550.048828"/>
      <use xlink:href="#DejaVuSans-75" x="589.257812"/>
      <use xlink:href="#DejaVuSans-6d" x="652.636719"/>
     </g>
    </g>
   </g>
   <g id="matplotlib.axis_2">
    <g id="ytick_1">
     <g id="line2d_8">
      <defs>
       <path id="ma3caa54d67" d="M 0 0 
L -3.5 0 
" style="stroke: #000000; stroke-width: 0.8"/>
      </defs>
      <g>
       <use xlink:href="#ma3caa54d67" x="57.6" y="295.488" style="stroke: #000000; stroke-width: 0.8"/>
      </g>
     </g>
     <g id="text_9">
      <!-- 0.0 -->
      <g transform="translate(34.696875 299.287219) scale(0.1 -0.1)">
       <defs>
        <path id="DejaVuSans-2e" d="M 684 794 
L 1344 794 
L 1344 0 
L 684 0 
L 684 794 
z
" transform="scale(0.015625)"/>
       </defs>
       <use xlink:href="#DejaVuSans-30"/>
       <use xlink:href="#DejaVuSans-2e" x="63.623047"/>
       <use xlink:href="#DejaVuSans-30" x="95.410156"/>
      </g>
     </g>
    </g>
    <g id="ytick_2">
     <g id="line2d_9">
      <g>
       <use xlink:href="#ma3caa54d67" x="57.6" y="247.104" style="stroke: #000000; stroke-width: 0.8"/>
      </g>
     </g>
     <g id="text_10">
      <!-- 0.2 -->
      <g transform="translate(34.696875 250.903219) scale(0.1 -0.1)">
       <use xlink:href="#DejaVuSans-30"/>
       <use xlink:href="#DejaVuSans-2e" x="63.623047"/>
       <use xlink:href="#DejaVuSans-32" x="95.410156"/>
      </g>
     </g>
    </g>
    <g id="ytick_3">
     <g id="line2d_10">
      <g>
       <use xlink:href="#ma3caa54d67" x="57.6" y="198.72" style="stroke: #000000; stroke-width: 0.8"/>
      </g>
     </g>
     <g id="text_11">
      <!-- 0.4 -->
      <g transform="translate(34.696875 202.519219) scale(0.1 -0.1)">
       <use xlink:href="#DejaVuSans-30"/>
       <use xlink:href="#DejaVuSans-2e" x="63.623047"/>
       <use xlink:href="#DejaVuSans-34" x="95.410156"/>
      </g>
     </g>
    </g>
    <g id="ytick_4">
     <g id="line2d_11">
      <g>
       <use xlink:href="#ma3caa54d67" x="57.6" y="150.336" style="stroke: #000000; stroke-width: 0.8"/>
      </g>
     </g>
     <g id="text_12">
      <!-- 0.6 -->
      <g transform="translate(34.696875 154.135219) scale(0.1 -0.1)">
       <use xlink:href="#DejaVuSans-30"/>
       <use xlink:href="#DejaVuSans-2e" x="63.623047"/>
       <use xlink:href="#DejaVuSans-36" x="95.410156"/>
      </g>
     </g>
    </g>
    <g id="ytick_5">
     <g id="line2d_12">
      <g>
       <use xlink:href="#ma3caa54d67" x="57.6" y="101.952" style="stroke: #000000; stroke-width: 0.8"/>
      </g>
     </g>
     <g id="text_13">
      <!-- 0.8 -->
      <g transform="translate(34.696875 105.751219) scale(0.1 -0.1)">
       <use xlink:href="#DejaVuSans-30"/>
       <use xlink:href="#DejaVuSans-2e" x="63.623047"/>
       <use xlink:href="#DejaVuSans-38" x="95.410156"/>
      </g>
     </g>
    </g>
    <g id="ytick_6">
     <g id="line2d_13">
      <g>
       <use xlink:href="#ma3caa54d67" x="57.6" y="53.568" style="stroke: #000000; stroke-width: 0.8"/>
      </g>
     </g>
     <g id="text_14">
      <!-- 1.0 -->
      <g transform="translate(34.696875 57.367219) scale(0.1 -0.1)">
       <use xlink:href="#DejaVuSans-31"/>
       <use xlink:href="#DejaVuSans-2e" x="63.623047"/>
       <use xlink:href="#DejaVuSans-30" x="95.410156"/>
      </g>
     </g>
    </g>
    <g id="text_15">
     <!-- COVID -->
     <g transform="translate(28.617187 190.613156) rotate(-90) scale(0.1 -0.1)">
      <defs>
       <path id="DejaVuSans-43" d="M 4122 4306 
L 4122 3641 
Q 3803 3938 3442 4084 
Q 3081 4231 2675 4231 
Q 1875 4231 1450 3742 
Q 1025 3253 1025 2328 
Q 1025 1406 1450 917 
Q 1875 428 2675 428 
Q 3081 428 3442 575 
Q 3803 722 4122 1019 
L 4122 359 
Q 3791 134 3420 21 
Q 3050 -91 2638 -91 
Q 1578 -91 968 557 
Q 359 1206 359 2328 
Q 359 3453 968 4101 
Q 1578 4750 2638 4750 
Q 3056 4750 3426 4639 
Q 3797 4528 4122 4306 
z
" transform="scale(0.015625)"/>
       <path id="DejaVuSans-4f" d="M 2522 4238 
Q 1834 4238 1429 3725 
Q 1025 3213 1025 2328 
Q 1025 1447 1429 934 
Q 1834 422 2522 422 
Q 3209 422 3611 934 
Q 4013 1447 4013 2328 
Q 4013 3213 3611 3725 
Q 3209 4238 2522 4238 
z
M 2522 4750 
Q 3503 4750 4090 4092 
Q 4678 3434 4678 2328 
Q 4678 1225 4090 567 
Q 3503 -91 2522 -91 
Q 1538 -91 948 565 
Q 359 1222 359 2328 
Q 359 3434 948 4092 
Q 1538 4750 2522 4750 
z
" transform="scale(0.015625)"/>
       <path id="DejaVuSans-56" d="M 1831 0 
L 50 4666 
L 709 4666 
L 2188 738 
L 3669 4666 
L 4325 4666 
L 2547 0 
L 1831 0 
z
" transform="scale(0.015625)"/>
       <path id="DejaVuSans-49" d="M 628 4666 
L 1259 4666 
L 1259 0 
L 628 0 
L 628 4666 
z
" transform="scale(0.015625)"/>
       <path id="DejaVuSans-44" d="M 1259 4147 
L 1259 519 
L 2022 519 
Q 2988 519 3436 956 
Q 3884 1394 3884 2338 
Q 3884 3275 3436 3711 
Q 2988 4147 2022 4147 
L 1259 4147 
z
M 628 4666 
L 1925 4666 
Q 3281 4666 3915 4102 
Q 4550 3538 4550 2338 
Q 4550 1131 3912 565 
Q 3275 0 1925 0 
L 628 0 
L 628 4666 
z
" transform="scale(0.015625)"/>
      </defs>
      <use xlink:href="#DejaVuSans-43"/>
      <use xlink:href="#DejaVuSans-4f" x="69.824219"/>
      <use xlink:href="#DejaVuSans-56" x="146.785156"/>
      <use xlink:href="#DejaVuSans-49" x="215.193359"/>
      <use xlink:href="#DejaVuSans-44" x="244.685547"/>
     </g>
    </g>
   </g>
   <g id="line2d_14">
    <path d="M 73.832727 295.488 
L 337.852462 295.488 
L 338.940082 280.368 
L 340.299607 247.104 
L 341.115322 260.928 
L 341.659132 214.848 
L 341.931037 295.488 
L 347.369137 295.488 
L 348.184852 247.104 
L 349.272471 273.495273 
L 349.816281 53.568 
L 351.991521 150.336 
L 353.079141 129.168 
L 354.438666 174.528 
L 355.526286 119.546182 
L 356.070096 295.488 
L 357.429621 105.408 
L 359.061051 150.336 
L 360.148671 198.72 
L 361.780101 134.208 
L 362.595815 174.528 
L 363.41153 93.888 
L 366.13058 150.336 
L 367.2182 122.688 
L 368.84963 88.128 
L 369.665345 101.952 
L 370.209155 174.528 
L 371.56868 174.528 
L 373.20011 247.104 
L 374.28773 267.026824 
L 375.919159 276.878769 
L 376.734874 279.36 
L 377.550589 267.026824 
L 378.366304 53.568 
L 380.269639 295.488 
L 381.085354 260.928 
L 383.260594 265.248 
L 384.076309 235.008 
L 384.620119 295.488 
L 385.707739 226.368 
L 387.611074 276.878769 
L 388.426788 295.488 
L 390.058218 295.488 
L 390.873933 247.104 
L 392.233458 260.928 
L 394.408698 247.104 
L 395.224413 247.104 
L 397.127748 280.368 
L 398.487273 174.528 
L 398.487273 174.528 
" clip-path="url(#p2bc89a9063)" style="fill: none; stroke: #1f77b4; stroke-width: 1.5; stroke-linecap: square"/>
   </g>
   <g id="patch_3">
    <path d="M 57.6 307.584 
L 57.6 41.472 
" style="fill: none; stroke: #000000; stroke-width: 0.8; stroke-linejoin: miter; stroke-linecap: square"/>
   </g>
   <g id="patch_4">
    <path d="M 414.72 307.584 
L 414.72 41.472 
" style="fill: none; stroke: #000000; stroke-width: 0.8; stroke-linejoin: miter; stroke-linecap: square"/>
   </g>
   <g id="patch_5">
    <path d="M 57.6 307.584 
L 414.72 307.584 
" style="fill: none; stroke: #000000; stroke-width: 0.8; stroke-linejoin: miter; stroke-linecap: square"/>
   </g>
   <g id="patch_6">
    <path d="M 57.6 41.472 
L 414.72 41.472 
" style="fill: none; stroke: #000000; stroke-width: 0.8; stroke-linejoin: miter; stroke-linecap: square"/>
   </g>
   <g id="text_16">
    <!-- Sitzungen mit Erwähnung von "COVID", "Corona" oder "Covid" -->
    <g transform="translate(48.538125 35.472) scale(0.12 -0.12)">
     <defs>
      <path id="DejaVuSans-65" d="M 3597 1894 
L 3597 1613 
L 953 1613 
Q 991 1019 1311 708 
Q 1631 397 2203 397 
Q 2534 397 2845 478 
Q 3156 559 3463 722 
L 3463 178 
Q 3153 47 2828 -22 
Q 2503 -91 2169 -91 
Q 1331 -91 842 396 
Q 353 884 353 1716 
Q 353 2575 817 3079 
Q 1281 3584 2069 3584 
Q 2775 3584 3186 3129 
Q 3597 2675 3597 1894 
z
M 3022 2063 
Q 3016 2534 2758 2815 
Q 2500 3097 2075 3097 
Q 1594 3097 1305 2825 
Q 1016 2553 972 2059 
L 3022 2063 
z
" transform="scale(0.015625)"/>
      <path id="DejaVuSans-20" transform="scale(0.015625)"/>
      <path id="DejaVuSans-45" d="M 628 4666 
L 3578 4666 
L 3578 4134 
L 1259 4134 
L 1259 2753 
L 3481 2753 
L 3481 2222 
L 1259 2222 
L 1259 531 
L 3634 531 
L 3634 0 
L 628 0 
L 628 4666 
z
" transform="scale(0.015625)"/>
      <path id="DejaVuSans-72" d="M 2631 2963 
Q 2534 3019 2420 3045 
Q 2306 3072 2169 3072 
Q 1681 3072 1420 2755 
Q 1159 2438 1159 1844 
L 1159 0 
L 581 0 
L 581 3500 
L 1159 3500 
L 1159 2956 
Q 1341 3275 1631 3429 
Q 1922 3584 2338 3584 
Q 2397 3584 2469 3576 
Q 2541 3569 2628 3553 
L 2631 2963 
z
" transform="scale(0.015625)"/>
      <path id="DejaVuSans-77" d="M 269 3500 
L 844 3500 
L 1563 769 
L 2278 3500 
L 2956 3500 
L 3675 769 
L 4391 3500 
L 4966 3500 
L 4050 0 
L 3372 0 
L 2619 2869 
L 1863 0 
L 1184 0 
L 269 3500 
z
" transform="scale(0.015625)"/>
      <path id="DejaVuSans-e4" d="M 2194 1759 
Q 1497 1759 1228 1600 
Q 959 1441 959 1056 
Q 959 750 1161 570 
Q 1363 391 1709 391 
Q 2188 391 2477 730 
Q 2766 1069 2766 1631 
L 2766 1759 
L 2194 1759 
z
M 3341 1997 
L 3341 0 
L 2766 0 
L 2766 531 
Q 2569 213 2275 61 
Q 1981 -91 1556 -91 
Q 1019 -91 701 211 
Q 384 513 384 1019 
Q 384 1609 779 1909 
Q 1175 2209 1959 2209 
L 2766 2209 
L 2766 2266 
Q 2766 2663 2505 2880 
Q 2244 3097 1772 3097 
Q 1472 3097 1187 3025 
Q 903 2953 641 2809 
L 641 3341 
Q 956 3463 1253 3523 
Q 1550 3584 1831 3584 
Q 2591 3584 2966 3190 
Q 3341 2797 3341 1997 
z
M 2150 4850 
L 2784 4850 
L 2784 4219 
L 2150 4219 
L 2150 4850 
z
M 928 4850 
L 1563 4850 
L 1563 4219 
L 928 4219 
L 928 4850 
z
" transform="scale(0.015625)"/>
      <path id="DejaVuSans-68" d="M 3513 2113 
L 3513 0 
L 2938 0 
L 2938 2094 
Q 2938 2591 2744 2837 
Q 2550 3084 2163 3084 
Q 1697 3084 1428 2787 
Q 1159 2491 1159 1978 
L 1159 0 
L 581 0 
L 581 4863 
L 1159 4863 
L 1159 2956 
Q 1366 3272 1645 3428 
Q 1925 3584 2291 3584 
Q 2894 3584 3203 3211 
Q 3513 2838 3513 2113 
z
" transform="scale(0.015625)"/>
      <path id="DejaVuSans-76" d="M 191 3500 
L 800 3500 
L 1894 563 
L 2988 3500 
L 3597 3500 
L 2284 0 
L 1503 0 
L 191 3500 
z
" transform="scale(0.015625)"/>
      <path id="DejaVuSans-6f" d="M 1959 3097 
Q 1497 3097 1228 2736 
Q 959 2375 959 1747 
Q 959 1119 1226 758 
Q 1494 397 1959 397 
Q 2419 397 2687 759 
Q 2956 1122 2956 1747 
Q 2956 2369 2687 2733 
Q 2419 3097 1959 3097 
z
M 1959 3584 
Q 2709 3584 3137 3096 
Q 3566 2609 3566 1747 
Q 3566 888 3137 398 
Q 2709 -91 1959 -91 
Q 1206 -91 779 398 
Q 353 888 353 1747 
Q 353 2609 779 3096 
Q 1206 3584 1959 3584 
z
" transform="scale(0.015625)"/>
      <path id="DejaVuSans-22" d="M 1147 4666 
L 1147 2931 
L 616 2931 
L 616 4666 
L 1147 4666 
z
M 2328 4666 
L 2328 2931 
L 1797 2931 
L 1797 4666 
L 2328 4666 
z
" transform="scale(0.015625)"/>
      <path id="DejaVuSans-2c" d="M 750 794 
L 1409 794 
L 1409 256 
L 897 -744 
L 494 -744 
L 750 256 
L 750 794 
z
" transform="scale(0.015625)"/>
     </defs>
     <use xlink:href="#DejaVuSans-53"/>
     <use xlink:href="#DejaVuSans-69" x="63.476562"/>
     <use xlink:href="#DejaVuSans-74" x="91.259766"/>
     <use xlink:href="#DejaVuSans-7a" x="130.46875"/>
     <use xlink:href="#DejaVuSans-75" x="182.958984"/>
     <use xlink:href="#DejaVuSans-6e" x="246.337891"/>
     <use xlink:href="#DejaVuSans-67" x="309.716797"/>
     <use xlink:href="#DejaVuSans-65" x="373.193359"/>
     <use xlink:href="#DejaVuSans-6e" x="434.716797"/>
     <use xlink:href="#DejaVuSans-20" x="498.095703"/>
     <use xlink:href="#DejaVuSans-6d" x="529.882812"/>
     <use xlink:href="#DejaVuSans-69" x="627.294922"/>
     <use xlink:href="#DejaVuSans-74" x="655.078125"/>
     <use xlink:href="#DejaVuSans-20" x="694.287109"/>
     <use xlink:href="#DejaVuSans-45" x="726.074219"/>
     <use xlink:href="#DejaVuSans-72" x="789.257812"/>
     <use xlink:href="#DejaVuSans-77" x="830.371094"/>
     <use xlink:href="#DejaVuSans-e4" x="912.158203"/>
     <use xlink:href="#DejaVuSans-68" x="973.4375"/>
     <use xlink:href="#DejaVuSans-6e" x="1036.816406"/>
     <use xlink:href="#DejaVuSans-75" x="1100.195312"/>
     <use xlink:href="#DejaVuSans-6e" x="1163.574219"/>
     <use xlink:href="#DejaVuSans-67" x="1226.953125"/>
     <use xlink:href="#DejaVuSans-20" x="1290.429688"/>
     <use xlink:href="#DejaVuSans-76" x="1322.216797"/>
     <use xlink:href="#DejaVuSans-6f" x="1381.396484"/>
     <use xlink:href="#DejaVuSans-6e" x="1442.578125"/>
     <use xlink:href="#DejaVuSans-20" x="1505.957031"/>
     <use xlink:href="#DejaVuSans-22" x="1537.744141"/>
     <use xlink:href="#DejaVuSans-43" x="1583.740234"/>
     <use xlink:href="#DejaVuSans-4f" x="1653.564453"/>
     <use xlink:href="#DejaVuSans-56" x="1730.525391"/>
     <use xlink:href="#DejaVuSans-49" x="1798.933594"/>
     <use xlink:href="#DejaVuSans-44" x="1828.425781"/>
     <use xlink:href="#DejaVuSans-22" x="1905.427734"/>
     <use xlink:href="#DejaVuSans-2c" x="1951.423828"/>
     <use xlink:href="#DejaVuSans-20" x="1983.210938"/>
     <use xlink:href="#DejaVuSans-22" x="2014.998047"/>
     <use xlink:href="#DejaVuSans-43" x="2060.994141"/>
     <use xlink:href="#DejaVuSans-6f" x="2130.818359"/>
     <use xlink:href="#DejaVuSans-72" x="2192"/>
     <use xlink:href="#DejaVuSans-6f" x="2230.863281"/>
     <use xlink:href="#DejaVuSans-6e" x="2292.044922"/>
     <use xlink:href="#DejaVuSans-61" x="2355.423828"/>
     <use xlink:href="#DejaVuSans-22" x="2416.703125"/>
     <use xlink:href="#DejaVuSans-20" x="2462.699219"/>
     <use xlink:href="#DejaVuSans-6f" x="2494.486328"/>
     <use xlink:href="#DejaVuSans-64" x="2555.667969"/>
     <use xlink:href="#DejaVuSans-65" x="2619.144531"/>
     <use xlink:href="#DejaVuSans-72" x="2680.667969"/>
     <use xlink:href="#DejaVuSans-20" x="2721.78125"/>
     <use xlink:href="#DejaVuSans-22" x="2753.568359"/>
     <use xlink:href="#DejaVuSans-43" x="2799.564453"/>
     <use xlink:href="#DejaVuSans-6f" x="2869.388672"/>
     <use xlink:href="#DejaVuSans-76" x="2930.570312"/>
     <use xlink:href="#DejaVuSans-69" x="2989.75"/>
     <use xlink:href="#DejaVuSans-64" x="3017.533203"/>
     <use xlink:href="#DejaVuSans-22" x="3081.009766"/>
    </g>
   </g>
  </g>
 </g>
 <defs>
  <clipPath id="p2bc89a9063">
   <rect x="57.6" y="41.472" width="357.12" height="266.112"/>
  </clipPath>
 </defs>
</svg>
